<svg width="123" height="77" viewBox="0 0 123 77" fill="none" xmlns="http://www.w3.org/2000/svg">
<path d="M61.9878 5.06343C61.5997 5.33823 60.9293 5.70241 60.3418 6.06014C60.1593 6.17044 60.1216 5.96076 59.9867 6.03556C59.7258 6.18099 59.579 6.45055 59.3122 6.60499C59.2216 6.65701 59.109 6.35682 59.0174 6.41708C58.508 6.75807 58.1795 7.23774 57.7164 7.68536C55.4583 9.88354 53.4372 12.5161 51.2197 15.0838C50.4842 15.9459 49.3797 16.776 48.7402 17.7762C48.667 17.8926 48.969 18.0585 48.9732 18.0971C49.031 18.7009 48.6106 18.134 48.3713 18.2761C47.4264 18.8377 46.626 19.6843 46.0409 20.5371C45.7948 20.8979 46.6006 21.0828 46.019 21.1226C45.979 21.1256 45.7775 20.773 45.6679 20.8314C45.4201 20.9641 45.1176 21.39 44.9557 21.5165C44.6376 21.7631 44.5943 21.8138 44.3261 22.0866C43.9575 22.4568 43.3925 22.7451 43.0545 23.2099C42.9855 23.3081 43.3826 23.502 43.2983 23.6875C43.2144 23.8731 42.8323 24.203 42.6418 24.2492C42.4518 24.2955 42.2784 23.9994 42.205 23.9643C41.5877 23.6631 41.7768 24.7178 41.7363 24.7888C41.3642 25.406 40.8709 25.8165 40.3489 26.1746C40.187 26.2858 40.0219 26.3928 39.8561 26.5004C39.4932 26.7361 39.1344 26.9696 38.8074 27.2539C38.0916 27.878 37.3901 28.7027 36.6732 29.2615C35.8007 29.9396 34.9293 30.316 34.1006 31.0093C34.0128 31.0821 34.4442 31.4365 34.3374 31.5268C33.2145 32.4767 32.0082 33.2999 30.579 33.8383C30.4371 33.8905 30.3168 33.3756 30.159 33.4027C29.213 33.5747 27.4991 33.5128 28.2144 35.6377C27.6412 35.9088 26.99 36.2171 26.2848 36.1287C25.8358 36.0681 25.8486 35.4166 25.599 35.8412C25.5425 35.9362 25.8953 36.2876 25.7915 36.3992C25.3626 36.8647 24.6902 37.0751 24.2859 37.5946C24.2042 37.7014 24.4443 38.0682 24.4518 38.1547C24.5085 38.8591 23.5545 38.1813 23.4268 38.1622C22.4431 38.0463 22.0116 38.527 21.3318 38.857C21.1748 38.9325 21.6219 39.376 21.4797 39.4686C20.71 39.9552 19.8474 40.314 18.9499 40.4237C18.7522 40.4454 18.7059 39.8994 18.6015 39.8851C18.128 39.832 18.4249 40.7704 17.9833 40.7305C17.8913 40.7227 17.7644 40.2931 17.7321 40.2538C17.2313 39.6325 17.4517 40.7187 17.4009 40.7664C16.8012 41.3722 15.9316 40.4843 15.3112 40.8844C15.2358 40.934 15.6156 41.4027 15.386 41.5117C13.8565 42.2414 12.0746 42.6283 10.3456 42.5311C10.0689 42.5181 10.1662 42.0436 10.1385 41.9941C9.70204 41.2161 9.77012 42.3673 9.69569 42.4271C9.21395 42.7678 8.68136 42.3391 8.31466 42.7676C8.21963 42.8955 8.11392 43.1059 8.05029 43.4386C7.90952 43.4333 7.72668 43.4353 7.5985 43.4335C7.51491 43.4349 7.45238 43.4346 7.40115 43.4341C7.37031 43.4345 7.35114 43.434 7.35441 43.4305C7.36713 43.4159 7.3225 43.4642 7.78001 43.3002C7.62549 43.3499 7.49131 43.3951 7.37812 43.4351C7.22779 43.4907 7.13521 43.5254 7.02954 43.5708C6.99902 43.5819 6.92768 43.622 7.04438 43.5566C7.08109 43.534 7.11331 43.5177 7.22211 43.4377C7.29244 43.3837 7.38712 43.3132 7.53459 43.1531C7.67221 42.9863 7.91937 42.7437 8.07805 42.1001C8.27934 41.4742 7.92993 40.3364 7.42812 39.9355C7.11674 39.6381 6.84802 39.5169 6.65541 39.4395C6.26821 39.2978 6.10186 39.303 5.9782 39.2902C5.86241 39.2833 5.78614 39.2875 5.76358 39.2884C5.72299 39.2903 5.69997 39.2925 5.68582 39.2938C5.62686 39.3014 5.81978 39.2685 5.91871 39.2456C6.44779 39.1311 7.04777 38.9808 7.63742 38.869C8.83471 38.6411 10.054 38.5394 11.346 38.9113C11.3825 38.9205 11.4188 39.5357 11.4908 39.5518C12.3573 39.7566 12.0464 38.8436 12.4346 37.5832C12.5324 37.2647 13.1469 38.6122 13.1959 38.713C13.3811 39.077 13.3611 40.0174 13.4157 40.0854C13.8555 40.6233 13.4061 37.5775 13.9262 37.4999C13.9429 37.5028 13.9408 38.0779 13.9903 38.1282C14.1441 38.287 14.2509 38.0443 14.4013 38.2234C14.7485 38.6378 14.9985 40.1368 15.3599 39.2129C15.407 39.0928 15.1559 37.3325 15.6299 37.3651C15.8185 37.3786 16.6405 37.2715 16.8805 37.3728C17.1184 37.4724 16.9883 38.0651 17.0065 38.0888C17.6544 38.8202 17.4361 39.1546 17.7707 40.2871C18.093 41.4216 17.9369 38.6994 18.0557 38.3898C18.176 38.0802 18.6375 38.71 18.7441 38.9343C18.8528 39.1573 18.7193 39.5333 18.8144 39.6597C19.4362 40.4917 19.1028 38.2938 19.3258 37.8558C19.8726 36.8165 20.2253 38.8786 20.6515 39.1095C20.7729 39.1717 20.7021 38.6956 20.8183 38.6585C21.2859 38.5194 21.4765 39.1861 22.0595 38.6531C22.1465 38.5656 22.7632 37.3741 22.9011 38.3321C22.9171 38.4698 22.7238 38.9673 22.8937 39.1141C23.1451 39.3327 23.6233 39.5468 23.963 39.4507C24.1747 39.3908 24.1808 38.7494 24.3058 38.735C24.3288 38.7318 24.3559 38.7526 24.389 38.8065C24.4782 38.9533 24.1288 39.3883 24.3062 39.6235C24.483 39.8584 25.0482 39.9831 25.262 40.0216C25.4763 40.0597 25.5335 39.3895 25.562 39.3509C25.6068 39.2927 25.6738 39.2357 25.7487 39.1834C25.9571 39.0383 26.2259 38.9299 26.2517 38.9373C28.123 39.343 29.4266 40.892 31.3044 41.0813C31.449 41.0961 31.575 40.3854 31.5993 40.3806C32.1565 40.2389 31.2125 41.9401 31.3351 42.6491C31.734 41.2486 31.8425 41.559 32.2299 41.5157C32.4153 41.4932 32.5037 40.9281 32.5364 40.8779C33.0455 40.1394 32.8632 41.2461 32.8328 41.4754C32.7237 42.319 33.205 41.4379 33.1307 42.0024C33.0557 42.563 32.5566 43.2629 32.8638 43.3563C33.1188 42.8888 33.3313 41.5147 33.6378 41.3829C34.8453 40.8927 36.1732 42.513 36.8376 42.8972C37.5288 43.2851 37.7741 43.2796 38.1245 43.6302C38.7471 44.2654 38.8701 43.1953 39.527 42.9559C40.1857 42.7196 38.9315 44.9658 38.7756 45.4973C38.6184 46.0289 38.9178 45.5426 38.8748 45.8545C38.8302 46.166 38.5085 46.4314 38.6455 46.6179C38.7813 46.8036 39.6787 46.1391 39.9888 45.6468C40.6474 44.6046 40.9572 43.3315 41.2822 43.9808C41.2998 44.0187 40.9136 44.5842 40.9956 44.6986C41.6339 45.5765 42.5205 46.0668 43.1271 46.9392C43.2076 47.0589 42.7345 47.6642 42.776 47.7409C43.2089 48.5495 43.6041 47.2999 44.7183 46.299C43.6633 47.8815 43.2628 48.9901 43.747 49.309C44.0343 49.5003 44.4289 48.7661 44.9399 48.3974C45.0922 48.2847 44.997 48.9064 45.2504 48.6045C46.0883 47.6236 46.681 46.2915 46.9043 47.1294C46.9121 47.1676 46.4409 47.6965 46.4965 47.7858C46.8549 48.3714 47.6932 47.3165 48.3667 47.6066C48.8989 47.8363 49.1537 49.0844 49.5312 49.5839C48.1205 51.2309 48.8421 51.1986 50.0203 50.2402C50.2762 50.5481 50.6489 50.7737 50.7824 51.1851C50.8282 51.3257 50.3301 51.7244 50.295 51.7851C49.7314 52.727 50.8659 51.7877 50.9685 51.8065C52.0182 52.0449 51.7289 53.3484 53.1096 53.2163C53.1586 53.211 54.3081 52.2015 53.652 53.1317C53.6055 53.1948 52.9045 53.4651 53.1403 53.7939C53.3774 54.1232 53.2806 55.2295 54.1767 55.151C54.3941 55.1343 55.5399 54.5326 55.0042 55.3898C54.9311 55.5059 54.5796 55.7762 54.434 55.9807C53.9717 56.6344 55.18 55.647 54.3398 56.6871C53.4988 57.7259 53.0591 58.7172 54.1056 58.4952C54.1373 58.4903 55.1284 57.7358 55.2343 57.8755C55.4032 58.1003 55.4846 58.5587 55.6963 58.7648C55.7975 58.8625 56.2876 58.2595 56.3147 58.2671C56.3245 58.2708 56.3343 58.2746 56.3439 58.2785C56.3551 58.2894 56.3854 58.3249 56.3955 58.3369C56.6409 58.4646 56.8095 58.6268 56.9338 58.8159C57.2615 59.3136 57.2801 59.9969 57.5673 60.6884C57.6402 60.8679 58.7928 60.5975 58.3721 61.4048C57.9124 62.2911 54.7097 64.4245 55.9902 64.5481C56.5076 64.6062 60.5247 61.8107 59.0188 63.9403C60.3126 64.4919 60.1045 66.2354 61.6288 66.5829C61.6973 66.5994 62.8356 65.8084 62.9116 65.9192C63.022 66.0852 62.62 66.5986 62.684 66.7312C62.9432 67.3008 63.7166 67.3211 64.0452 67.7904C64.1725 67.9691 63.6372 68.3753 63.79 68.5888C63.9434 68.8017 64.6955 68.3138 64.6355 68.8599C64.5885 69.2746 63.498 70.7334 63.6078 71.1406C64.8705 69.89 65.0193 70.0914 65.6543 70.0548C65.7771 70.0473 66.1453 69.5418 66.2255 69.5152C66.5607 69.3959 66.3069 69.8639 66.656 69.7171C66.74 69.6819 67.1612 69.2439 67.2531 69.1899C68.0472 68.7108 67.4048 69.9812 67.2968 70.2056C66.8825 71.0546 67.5133 70.5595 67.4278 70.9626C67.3463 71.3689 66.8115 71.4862 66.8526 71.8143C66.9101 72.282 67.2094 72.6095 67.5135 72.8794C67.5197 72.8847 67.5387 72.9 67.5452 72.905C67.5879 72.9393 67.6303 72.9725 67.6721 73.0047C67.774 73.0832 67.8741 73.1578 67.9659 73.2324C68.1372 73.3661 68.4938 72.6216 68.5295 72.6256C68.9852 72.7045 68.9004 73.6784 69.9507 72.4327C68.027 76.1385 70.3762 72.229 70.4486 73.2178C70.4536 73.2968 69.6187 75.0715 69.2907 75.2264C68.9576 75.3782 68.9809 74.6886 68.4979 74.9223C68.3913 74.9827 67.0337 76.3135 66.9127 76.3675C66.015 76.8279 67.6582 74.367 67.736 74.2246C68.4711 72.8067 67.301 73.7866 66.9196 73.998C66.8805 74.021 66.8507 74.036 66.8334 74.0394C66.7709 74.0519 66.712 74.0596 66.6564 74.0631C66.6388 74.0496 66.5871 74.0079 66.5701 73.9935C65.9019 74.0145 65.7904 73.4843 65.1999 73.5127C64.7829 73.5281 63.4557 74.9366 63.3145 74.7251C62.8472 74.02 64.5352 71.9007 62.3774 73.0572C61.9168 73.3021 60.5419 74.9149 61.3038 73.3264C61.3507 73.2251 62.1308 71.8552 61.2804 72.3568C61.1728 72.4197 60.7352 72.8512 60.67 72.8581C60.2398 72.8934 60.4679 72.4243 60.0944 72.3713C59.7241 72.3214 59.2258 72.2998 59.149 71.9103C59.0999 71.6741 59.7604 70.7058 59.9004 70.4454C60.3069 69.6989 59.1477 70.3837 59.7515 69.6001C60.3609 68.8164 61.6688 68.0465 61.8489 67.3064C60.6662 68.3666 59.4382 69.4388 58.2412 70.4957C57.6342 69.7317 57.3949 68.6759 56.7208 67.9915C56.6362 67.9077 56.0749 68.5576 55.9674 68.4813C55.515 68.1543 55.6706 67.3996 55.1324 67.1261C54.7132 66.9162 53.7301 67.125 53.2721 66.915C54.4729 65.5495 53.5875 65.4234 53.4106 64.9394C53.3486 64.7715 53.7241 64.4773 53.7693 64.285C53.9312 63.5668 52.844 64.7315 52.5744 64.7908C51.4228 65.0393 54.1569 62.7522 53.7018 62.322C53.6783 62.2988 51.9536 63.171 51.827 63.1995C51.1109 63.375 52.0134 62.8917 52.2314 62.592C52.2625 62.5492 52.2797 62.5102 52.2762 62.4773C52.2461 62.1887 52.2996 61.891 52.1877 61.6937L52.4898 62.0361C52.398 61.9084 52.2402 61.8314 51.9481 61.8408C51.7319 61.8505 50.6476 62.4094 51.1152 61.5764C51.1767 61.4678 51.6427 61.055 51.6493 61.0085C51.7339 60.2049 50.3042 61.5355 49.6145 61.7578C48.9254 61.9798 49.61 60.726 49.8318 60.3938C50.4063 59.5337 50.2714 60.242 50.3529 60.1854C51.3164 59.5048 50.9447 59.3948 50.8491 59.1412C52.2285 57.8213 51.9107 57.6425 50.7453 58.8845C50.6183 59.0206 50.8793 59.0446 50.8491 59.1412C49.3235 60.2458 48.8923 60.1172 49.8986 58.626C50.3699 57.9274 51.1963 57.4199 50.5403 57.2162C50.2446 57.1248 49.3536 58.0887 48.9367 58.1588C47.9873 58.319 48.4225 56.9918 47.9212 56.7419C47.7413 56.6527 47.3572 57.2823 47.2178 57.2395C46.8492 57.1301 47.0224 56.5414 46.5978 56.4993C46.5591 56.4965 46.0889 57.0775 46.0117 57.0124C45.4204 56.5342 45.2778 55.7394 44.709 55.218C44.4305 54.9619 43.6751 54.8562 43.4348 54.5625C43.0137 54.0475 42.9557 52.6935 42.31 52.5717C41.9078 52.5 41.5842 53.1599 41.189 53.492C40.4313 54.139 40.8748 52.3885 40.9332 52.1155C40.9358 52.1065 41.3042 52.1331 41.3441 51.7203C41.65 50.9981 40.9373 52.1143 40.9332 52.1155C40.9793 51.9406 40.4843 51.4549 40.3021 51.5114C40.2029 51.5414 39.907 52.1608 39.8622 52.1654C38.7996 52.259 37.9793 52.0132 37.2811 51.3154C37.2726 51.296 37.614 50.6193 37.5898 50.5821C37.2575 50.0457 36.5351 50.7311 35.9322 51.0549C35.3225 51.3762 35.0729 51.0622 35.3156 49.7622C34.9505 49.7798 34.708 49.0598 34.5578 48.6272C34.4062 48.1939 33.8583 49.5413 33.8235 49.558C32.7908 50.1291 32.647 49.1785 31.9312 48.7712C31.5809 48.5707 30.7895 48.5029 30.3411 48.5094C29.9867 48.5164 29.8868 48.1262 29.5314 48.229C29.4839 48.2427 29.3284 48.8619 29.3091 48.8811C28.7594 49.4936 29.3849 48.0672 29.4027 47.7798C29.4657 46.735 29.4709 46.1723 28.8967 46.4809C28.765 46.5522 27.8116 48.5809 27.6056 48.6477C27.3331 48.7298 27.6489 47.9962 27.3543 48.1017C27.3292 48.11 27.1927 48.5815 27.0511 48.5117C26.3854 48.1918 25.7015 47.6752 24.959 47.4956C24.8573 47.4689 24.7787 48.2507 24.6288 48.2242C24.2164 48.1504 23.7969 48.0333 23.4142 47.8438C23.1358 47.7066 22.8676 47.5286 22.6241 47.299C22.4813 47.1616 22.7208 46.6774 22.725 46.5134C22.7369 45.9424 22.5185 46.1144 22.3207 46.3644C22.218 46.5603 22.1209 46.798 22.1069 46.8052C21.3446 47.2495 20.8205 45.8827 19.7582 46.3533C19.6926 46.3825 19.2506 47.7788 19.0744 46.5276C19.066 46.4434 18.867 45.169 18.6904 46.0198C18.6804 46.0728 18.8058 46.7285 18.5924 46.6483C18.3752 46.5695 18.0438 46.9781 17.7084 46.2653C17.6056 46.0393 17.2999 44.8021 17.0526 45.7843C17.029 45.8561 16.7363 48.0568 16.4557 46.538C16.4097 46.2883 16.3076 44.6832 16.0061 45.5145C15.95 45.6751 16.1082 46.0286 15.9453 46.2547C15.6967 46.6016 15.2775 46.1903 15.0065 46.9061C14.9578 47.0339 14.8323 48.1047 14.5273 47.3076C14.4787 47.1832 14.4752 46.6586 14.3567 46.6063C13.7861 46.3583 13.2784 46.7429 12.6746 46.4392C12.4587 46.3338 12.427 45.5022 12.1853 45.3049C11.9501 45.1061 11.4805 44.9512 11.3344 45.3484C11.1867 45.7448 11.6506 47.0076 11.3445 47.1464C10.693 47.4452 9.98056 47.4539 9.23188 47.4137C8.85078 47.3947 8.4692 47.3615 8.06139 47.3455C7.84962 47.3389 7.63362 47.3366 7.3795 47.3447C7.24786 47.3493 7.08143 47.3624 6.84913 47.3805C6.67014 47.396 6.5219 47.4169 6.08213 47.4302C5.83785 47.4317 5.54845 47.455 4.86708 47.3482C4.51869 47.2837 4.05769 47.2018 3.32757 46.8641C2.96413 46.6906 2.52623 46.4437 2.04137 46.0325C1.67256 45.7685 0.530534 44.5017 0.213526 43.1826C-0.514258 40.2473 0.816109 38.5912 1.2592 37.981C1.8167 37.3005 2.14614 37.0844 2.39286 36.8931C2.55635 36.7753 2.67307 36.7015 2.77771 36.6375C3.22878 36.3716 3.30604 36.325 3.35338 36.2541C3.38207 36.1964 3.37628 36.1389 3.37821 36.077C3.37221 35.9581 3.44709 35.7963 3.70967 35.6865C3.84896 35.6287 4.02742 35.5537 4.15947 35.4972C4.28766 35.4423 4.42817 35.3813 4.58547 35.3138C5.46382 34.9839 5.66624 34.9957 5.88898 34.9439C6.07208 34.9119 6.09293 34.9097 6.17077 34.8976C6.30032 34.8783 6.38819 34.8667 6.43853 34.8592C6.55731 34.8424 6.65022 34.8293 6.72881 34.8179C6.90513 34.7931 7.04751 34.7732 7.19627 34.7564C7.88863 34.6789 8.63018 34.6669 9.23696 35.0829C10.1017 35.6652 9.34779 36.3878 9.9629 36.5674C10.2785 36.6446 10.2111 35.2226 10.2596 35.1674C10.7654 34.5948 11.3606 35.0783 11.867 34.7403C11.9726 34.6699 11.686 34.1688 11.777 34.1152C12.0829 33.9291 12.5007 34.0656 12.816 33.9188C12.9485 33.8547 12.7796 33.4631 12.9194 33.4535C13.252 33.4254 13.6065 33.495 14.0475 33.7601C14.089 33.7836 14.0878 34.3398 14.3302 34.275C14.7274 34.1668 15.3501 34.3472 15.641 33.8046C15.7254 33.6423 15.363 32.7619 15.8953 33.2586C16.0075 33.3617 16.3916 34.4382 16.319 33.403C16.3062 33.2305 16.3174 31.7952 16.9255 32.4629C17.0884 32.6377 17.6621 33.3988 17.7586 33.1964C17.7699 33.166 17.4674 32.7466 17.5761 32.6449C17.9758 32.288 18.4464 32.1333 18.8517 31.7678C18.9579 31.6701 18.5348 31.2968 18.6999 31.1668C19.1247 30.8242 19.8377 30.6215 20.3864 30.522C20.5941 30.4837 20.6762 30.9177 20.7114 30.9517C21.2869 31.4991 20.9208 30.5475 20.9616 30.4604C21.2337 29.9209 21.7839 30.1644 22.1233 29.8365C22.2169 29.7475 21.8957 29.3785 21.896 29.3298C21.9112 28.8479 22.1787 29.6789 22.3719 29.6804C22.9269 29.679 23.332 29.4053 23.7123 29.1151C23.8501 29.0088 23.3918 28.6405 23.5184 28.551C24.2507 28.0204 25.105 27.5696 26.0117 27.3535C26.1858 27.3116 26.3286 27.7113 26.4113 27.7711C26.9884 28.1893 26.7853 27.2471 26.8062 27.1327C26.9072 26.6034 27.2237 26.8334 27.4606 26.5977C28.6345 25.4322 30.3767 24.5229 31.7268 23.7118C33.1022 22.8939 34.3231 22.2957 35.5152 21.4163C35.6604 21.3094 35.8041 21.1988 35.9464 21.0838C36.0885 20.9691 36.2293 20.8501 36.3691 20.726C36.4592 20.6466 36.0333 20.3442 36.1065 20.2717C37.0797 19.3443 38.2234 18.66 39.1672 17.6847C39.2443 17.6066 38.8085 17.3818 38.9217 17.2468C39.1475 16.9719 39.5277 16.6871 39.9053 16.5531C40.0896 16.486 40.1751 16.9115 40.3548 16.8373C40.7701 16.6678 41.1434 16.3789 41.4162 16.0457C41.5324 15.903 41.0075 15.7761 41.1833 15.6162C42.3843 14.5068 43.5381 13.3927 45.1396 12.5755C45.2482 12.5214 45.933 12.9862 45.9908 12.7077C45.8354 12.5461 45.6366 12.3723 45.4623 12.2081C47.1056 10.4459 49.0031 8.86019 50.757 7.04307C50.8318 6.96622 50.4217 6.86346 50.5657 6.71411C51.3954 5.85177 52.1426 4.93209 53.2961 4.25173C53.4101 4.18432 53.8163 4.63737 54.0043 4.31421C54.0368 4.25614 54.3786 3.79782 54.3877 3.60822C54.3877 3.58084 54.111 3.45998 54.2357 3.32726C54.9773 2.54751 55.8919 1.79312 56.9338 1.20465C57.103 1.11014 57.1192 1.4597 57.2398 1.39564C58.0741 0.951914 58.8905 0.175829 59.9258 0.0119853C60.0961 -0.0142875 60.221 0.00452316 60.319 0.0500978C60.3356 0.0525624 60.3515 0.0555342 60.3669 0.0589707C60.7963 0.166793 60.8016 0.508769 61.3111 0.81043C61.3565 0.842141 61.6033 0.857465 61.8221 0.985374C62.0426 1.11143 62.1386 1.29012 62.0623 1.40684C61.8765 1.71141 61.6067 1.97368 61.3913 2.28464C61.1673 2.58974 61.0147 2.94698 60.7702 3.24024C60.7288 3.2903 60.6281 3.23193 60.6078 3.22996C60.5805 3.22345 60.6186 3.28335 60.569 3.33315C60.569 3.33317 60.5689 3.33319 60.5689 3.33321C60.542 3.36484 60.4717 3.37947 60.4033 3.43813C60.3962 3.44521 60.3488 3.47477 60.4914 3.63923C60.6245 3.80525 60.9754 3.98951 61.0895 4.06543C61.269 4.18041 60.8601 4.42945 61.2834 4.58393C61.6682 4.70164 61.8972 4.44446 62.0285 4.45763C62.0342 4.45798 62.0399 4.45868 62.0457 4.45979C62.0412 4.46833 62.0372 4.47849 62.0337 4.49052C61.986 4.66264 62.1566 4.94182 61.9878 5.06343ZM33.8797 46.7084C33.8561 45.956 32.9476 48.334 33.4337 47.8685C33.4582 47.8432 33.8813 46.7456 33.8797 46.7084ZM58.9936 67.2747C59.673 66.1667 58.1341 67.1736 57.5905 68.0096C57.0503 68.8494 58.7889 67.6127 58.9936 67.2747ZM62.3254 69.594C62.7356 68.5935 59.7648 71.2989 60.6903 71.0987C60.7434 71.0882 62.302 69.6527 62.3254 69.594ZM59.7711 1.5219C59.7812 1.53071 60.0113 1.42561 60.0109 1.41193C59.9908 1.06275 59.5139 1.28061 59.7711 1.5219ZM65.808 71.6598C66.0799 71.1667 65.3581 71.3517 65.0163 71.9635C64.744 72.4591 65.473 72.277 65.808 71.6598ZM20.5876 40.2687C20.5849 40.2328 20.4251 40.1906 20.4165 40.3906C20.3896 41.0343 20.6197 40.8687 20.5876 40.2687ZM71.6186 75.3434C70.644 74.8475 71.5824 71.6192 72.2394 72.3271C72.3745 72.4561 71.5112 73.1515 71.6021 73.5105C71.8133 74.1731 72.76 72.3519 72.8033 73.5258C72.8229 73.7406 71.6801 75.3795 71.6153 75.3471C71.6164 75.3459 71.6175 75.3447 71.6186 75.3434ZM34.7794 43.7778C34.7852 43.7439 34.5771 43.6343 34.5632 43.6648C34.1722 44.382 34.581 44.601 34.7794 43.7778ZM10.8295 39.6091C10.8044 39.5508 10.2657 39.5927 10.2609 39.6512C10.1853 40.8026 11.258 40.7373 10.8295 39.6091ZM49.5011 49.6342C50.258 49.1545 50.5776 49.2957 50.0202 50.2386C49.86 50.021 49.6692 49.845 49.5011 49.6342Z" fill="#B69CBB"/>
<path d="M14.4332 36.3145C15.0827 35.9402 16.0137 35.7517 16.713 35.7119C16.9318 35.6986 16.8898 35.9402 17.0431 35.9414C17.3423 35.9442 17.5706 35.7696 17.8646 35.7976C17.9626 35.8079 17.9403 36.1738 18.0404 36.1771C18.586 36.194 19.0441 35.9933 19.5697 35.9529C22.1572 35.7597 24.6017 35.5595 27.124 35.5017C27.9566 35.4825 28.977 35.7325 29.8207 35.556C29.9196 35.535 29.8463 35.2323 29.8641 35.2062C29.8835 35.1788 29.9012 35.1562 29.9175 35.1379C29.9186 35.1365 29.9197 35.1352 29.9208 35.1339C30.1238 34.8966 30.0799 35.4342 30.2555 35.5018C31.0091 35.7892 31.8378 35.7673 32.5409 35.5943C32.8416 35.5193 32.5039 34.9272 32.8258 35.2484C32.8481 35.2702 32.7903 35.606 32.8749 35.6347C33.066 35.6995 33.4246 35.6109 33.5688 35.6249C33.8514 35.6535 33.901 35.646 34.1664 35.6261C34.5267 35.6014 34.9733 35.7297 35.3569 35.6142C35.4393 35.5882 35.3055 35.2484 35.4348 35.1744C35.5675 35.1002 35.9133 35.0909 36.0388 35.1613C36.1631 35.2319 36.132 35.5179 36.1574 35.5798C36.3708 36.1058 36.7206 35.309 36.7716 35.2819C37.6993 34.8472 38.5504 35.1816 39.4406 35.0683C40.121 34.9782 40.8267 34.7198 41.4759 34.6454C42.2414 34.5587 42.912 34.6897 43.6566 34.5382C43.7341 34.5224 43.5964 34.0295 43.6909 34.0081C44.7096 33.7799 45.7109 33.6516 46.7669 33.8537C46.8715 33.875 46.7894 34.3805 46.8971 34.4318C47.5584 34.7249 48.6522 35.6167 48.7974 33.3343C49.2198 33.349 49.7502 33.3478 50.1718 33.7495C50.4453 34.0088 50.2709 34.6203 50.5435 34.331C50.6051 34.266 50.4634 33.7737 50.5598 33.7136C50.9688 33.4585 51.448 33.5513 51.8402 33.2134C51.9199 33.1432 51.8454 32.6794 51.8604 32.5909C51.9904 31.8692 52.4537 32.9415 52.5356 33.015C53.1622 33.5429 53.5584 33.2363 54.0781 33.1676C54.2002 33.1521 53.9823 32.5203 54.097 32.4808C54.6993 32.2829 55.3228 32.2313 55.9601 32.4343C56.1019 32.4812 56.0458 33.0769 56.1171 33.1292C56.427 33.3558 56.3591 32.2531 56.6538 32.4469C56.7158 32.4866 56.7425 32.9896 56.7592 33.0427C57.0213 33.8785 57.0192 32.6393 57.0574 32.605C57.547 32.1515 58.0212 33.3893 58.5127 33.1361C58.571 33.104 58.3562 32.4808 58.5247 32.4293C59.5335 32.1148 60.6249 32.0875 61.7189 32.3661C61.719 32.3661 61.7191 32.3661 61.7192 32.3661C61.8304 32.3956 61.942 32.4281 62.0538 32.4637C62.2378 32.5214 62.1761 33.0342 62.1946 33.0938C62.494 34.0258 62.4494 32.7297 62.5002 32.6734C62.9061 32.2637 63.4615 33.2856 63.5698 31.7089C65.5343 31.9751 67.3055 30.8128 69.3931 31.9245C69.4195 31.9371 69.4704 32.5908 69.5227 32.6132C70.1553 32.8904 69.8965 31.9011 70.0965 30.6079C70.1466 30.2826 70.6582 31.7277 70.7006 31.8334C70.8545 32.222 70.8989 33.204 70.9421 33.2772C71.2959 33.8515 70.7796 30.658 71.1308 30.6009C71.1426 30.6045 71.1838 31.2015 71.222 31.2556C71.3411 31.4254 71.3974 31.1768 71.5175 31.3659C71.7929 31.8038 72.1006 33.3529 72.2791 32.3971C72.3013 32.273 71.9682 30.4602 72.2951 30.4962C72.4256 30.5123 72.9763 30.3924 73.1492 30.4862C73.3222 30.5799 73.3046 31.1863 73.3195 31.2101C73.8562 31.9242 73.7463 32.2723 74.1317 33.3958C74.517 34.5158 74.0422 31.7778 74.0812 31.4576C74.1206 31.1383 74.5257 31.7348 74.6356 31.9476C74.7453 32.1604 74.7083 32.5508 74.7948 32.6675C75.3673 33.4296 74.7821 31.2708 74.862 30.8106C75.0489 29.7197 75.631 31.7212 75.9789 31.8733C76.0729 31.9141 75.9313 31.4586 76.0009 31.4029C76.277 31.1885 76.5578 31.8001 76.8111 31.1587C76.8527 31.0544 76.9393 29.7745 77.2589 30.6526C77.3046 30.7794 77.3115 31.3031 77.4579 31.3976C77.6775 31.5394 78.042 31.5971 78.2219 31.3929C78.3547 31.2418 78.0485 30.4235 78.2811 30.6558C78.3846 30.7596 78.3036 31.2797 78.4916 31.4337C78.6791 31.5877 79.0851 31.5016 79.2374 31.46C79.3896 31.4181 79.2045 30.7881 79.2102 30.7428C79.2474 30.4826 79.495 30.1246 79.5221 30.121C80.8336 29.828 82.2292 30.7223 83.4644 30.1551C83.561 30.1115 83.3862 29.4379 83.3998 29.4242C83.6998 29.0819 83.713 30.9454 84.0524 31.5163C83.7985 30.1325 83.9825 30.3611 84.2031 30.1697C84.3092 30.0763 84.1604 29.5481 84.1624 29.4913C84.2084 28.6454 84.4953 29.6824 84.5605 29.8937C84.7997 30.6708 84.7795 29.7107 84.9422 30.2299C85.1043 30.7452 85.0454 31.5563 85.2794 31.5093C85.267 31.0006 84.8876 29.7261 85.033 29.4865C85.5722 28.581 86.9993 29.4017 87.5498 29.4247C88.1105 29.4453 88.267 29.3261 88.6087 29.4578C89.2323 29.6953 88.8713 28.7574 89.1536 28.2576C89.4367 27.7578 89.6369 30.1748 89.7669 30.6808C89.8968 31.1867 89.87 30.6494 89.9761 30.9222C90.0819 31.195 90.0014 31.5651 90.1638 31.6487C90.3276 31.732 90.5769 30.7579 90.5489 30.2117C90.4842 29.0556 90.1202 27.8877 90.5732 28.2478C90.5992 28.2693 90.6235 28.9096 90.7183 28.9601C91.4599 29.3417 92.1797 29.2632 92.9086 29.5931C93.0122 29.639 93.0319 30.3524 93.0932 30.3871C93.717 30.7464 93.3571 29.6317 93.4543 28.2986C93.4545 28.2962 93.4546 28.2938 93.4548 28.2915C93.4639 28.2901 93.4912 28.2865 93.5003 28.2854C93.5021 28.2689 93.5039 28.2524 93.5058 28.2359C93.5156 28.3601 93.5261 28.4809 93.5375 28.598C93.5301 28.5988 93.5079 28.6018 93.5005 28.6029C93.5039 28.6301 93.5073 28.6572 93.5108 28.6841C93.5348 28.8688 93.5605 29.044 93.5878 29.209C93.5918 29.233 93.5958 29.2567 93.5998 29.2802C93.6035 29.2796 93.6147 29.2781 93.6184 29.2777C93.7809 30.403 94.041 31.0416 94.3762 31.0096C94.6329 30.9858 94.4981 30.2254 94.5987 29.6665C94.6273 29.4984 94.8736 30.002 94.8647 29.6383C94.8359 28.4499 94.5098 27.1528 95.0147 27.6279C95.037 27.6506 95.0507 28.3005 95.1221 28.332C95.5808 28.5386 95.4927 27.3052 95.9462 27.1093C96.2943 26.9569 97.0447 27.6348 97.4713 27.7134C97.6833 29.6556 98.0295 29.1637 98.0385 27.8173C98.3096 27.8459 98.6057 27.742 98.8856 27.9001C98.9824 27.9538 98.9846 28.5139 99.0026 28.5728C99.2789 29.4938 99.2539 28.1987 99.3092 28.1435C99.8967 27.5983 100.514 28.5071 101.025 27.5234C101.043 27.4877 100.943 26.1896 101.205 27.1229C101.222 27.1867 101.084 27.7928 101.373 27.8138C101.661 27.8374 102.27 28.4724 102.611 27.8491C102.694 27.6978 102.834 26.6566 103.109 27.4421C103.146 27.5485 103.152 27.9117 103.21 28.1093C103.394 28.7371 103.338 27.4643 103.584 28.5275C103.827 29.5913 104.2 30.3506 104.524 29.5754C104.535 29.5524 104.536 28.5558 104.666 28.5609C104.873 28.569 105.166 28.7485 105.38 28.723C105.481 28.7108 105.364 28.1133 105.38 28.1007C106.025 27.7144 106.557 28.2163 107.295 28.3875C107.429 28.4182 107.758 27.6078 108.056 28.2128C108.382 28.87 108.29 31.7023 108.873 30.9609C109.107 30.6555 109.237 27.1494 109.804 28.9227C110.694 28.4313 111.56 29.2769 112.452 28.6401C112.492 28.6116 112.601 27.6983 112.7 27.7107C112.845 27.73 112.932 28.1518 113.034 28.1778C113.466 28.2974 113.855 27.9386 114.272 27.9959C114.385 28.0107 114.389 28.2348 114.451 28.3677C114.453 28.3706 114.454 28.3736 114.456 28.3765C114.48 28.4236 114.513 28.4576 114.562 28.4636C114.749 28.4853 114.875 27.9323 115.128 28.2009C115.32 28.4063 115.499 29.5226 115.738 29.6461C115.769 28.5531 115.94 28.5754 116.26 28.3015C116.323 28.2487 116.273 27.8709 116.303 27.8267C116.429 27.6401 116.523 27.956 116.645 27.7547C116.675 27.7065 116.696 27.3424 116.723 27.283C116.95 26.7653 117.217 27.6136 117.254 27.7567C117.412 28.3078 117.548 27.8551 117.683 28.0811C117.814 28.3048 117.557 28.5366 117.72 28.6804C118.052 28.975 118.515 28.977 118.878 29.0545C119.02 29.0825 119.005 28.6223 119.027 28.616C119.358 28.5639 119.561 29.084 119.922 28.2699C119.631 30.5184 120.155 28.0972 120.491 28.6517C120.517 28.6965 120.301 29.7159 120.137 29.8384C119.976 29.9624 119.86 29.6011 119.628 29.8047C119.572 29.8497 119.123 30.7965 119.082 30.856C118.746 31.3008 119.03 29.7001 119.032 29.6083C119.06 28.6289 118.56 29.6721 118.477 29.7453C118.075 30.0568 117.82 29.7995 117.504 30.042C117.3 30.1998 117.171 31.3285 117.041 31.2964C116.615 31.1994 116.512 29.5663 116.004 31C115.896 31.3078 115.963 32.5952 115.643 31.6026C115.625 31.5417 115.372 30.6158 115.209 31.222C115.189 31.2987 115.187 31.682 115.161 31.7162C114.987 31.9385 114.871 31.6405 114.674 31.802C114.606 31.8583 114.533 31.9238 114.456 31.9807C114.454 31.9817 114.453 31.9828 114.452 31.9838C114.314 32.089 114.168 32.1639 114.027 32.0896C113.895 32.0216 113.72 31.2994 113.655 31.1225C113.469 30.6126 113.288 31.4839 113.167 30.8569C113.044 30.2232 113.253 29.2436 112.945 28.8388C112.952 29.8817 112.945 30.9539 112.947 32.0056C112.31 32.0325 111.673 31.7548 111.034 31.8768C110.954 31.8934 111.06 32.4681 110.976 32.5019C110.625 32.6442 110.294 32.2646 109.929 32.4861C109.65 32.6597 109.374 33.3491 109.085 33.5651C108.823 32.2967 108.401 32.8042 108.069 32.738C107.952 32.7146 107.933 32.3589 107.843 32.2553C107.507 31.8715 107.736 33.029 107.667 33.2288C107.366 34.0895 107.135 31.4055 106.703 31.5278C106.679 31.5318 106.524 33.0268 106.494 33.1263C106.301 33.761 106.412 32.6253 106.25 32.542C105.956 32.3898 105.732 32.0644 105.444 32.5509C105.361 32.6933 105.219 33.6641 104.966 32.9748C104.933 32.8843 104.901 32.3866 104.879 32.3607C104.483 31.9301 104.617 33.4957 104.466 34.0669C104.314 34.6395 103.904 33.6073 103.807 33.3005C103.559 32.5108 103.901 32.93 103.902 32.8483C103.916 31.8795 103.704 32.0786 103.517 32.0244C103.338 30.4675 103.103 30.5909 103.329 31.9738C103.355 32.1245 103.474 31.9584 103.517 32.0244C103.514 33.578 103.274 33.8331 102.825 32.4331C102.618 31.7755 102.671 30.9632 102.275 31.3118C102.094 31.47 102.282 32.5557 102.141 32.8825C101.832 33.6308 101.215 32.6816 100.833 32.9047C100.693 32.9872 100.902 33.5773 100.808 33.6555C100.557 33.8666 100.286 33.4409 100.043 33.7209C100.022 33.7472 100.151 34.3848 100.07 34.407C99.4572 34.5881 98.8709 34.2576 98.2121 34.346C97.9011 34.3884 97.3704 34.84 97.0407 34.8136C96.46 34.7743 95.6517 33.896 95.1859 34.1945C94.8907 34.3857 95.038 35.0467 94.957 35.5203C94.859 36.0957 94.5645 35.71 94.3332 35.2829L94.4773 35.2638C94.4766 35.2625 94.476 35.2613 94.4753 35.26C94.3374 35.01 94.2201 34.7465 94.1841 34.659C94.1815 34.6511 94.4229 34.4548 94.2314 34.1328C94.0441 33.4307 94.1865 34.6555 94.1841 34.659C94.1252 34.5061 93.5494 34.4364 93.4689 34.5789C93.4217 34.6571 93.5484 35.2847 93.522 35.3135C92.8764 35.988 92.1922 36.2545 91.4023 36.0712C91.3872 36.0604 91.2982 35.3512 91.2643 35.3346C90.7978 35.0837 90.6467 35.9905 90.3793 36.5549C90.1111 37.1193 89.7966 36.9906 89.4035 35.8112C89.165 36.0031 88.695 35.5265 88.4249 35.2354C88.1562 34.9442 88.3396 36.3195 88.3247 36.3494C87.8541 37.3074 87.3886 36.574 86.7368 36.547C86.4343 36.5305 85.8666 36.8181 85.5707 37.0145C85.3353 37.1723 85.1308 36.8754 84.9263 37.1147C84.8985 37.1467 85.0264 37.7491 85.0203 37.7739C84.8701 38.5388 84.7645 37.0362 84.6684 36.7792C84.3212 35.8444 84.1199 35.35 83.8538 35.8533C83.7927 35.9688 83.8992 38.1357 83.7788 38.2803C83.6202 38.4649 83.5695 37.6908 83.406 37.9038C83.3918 37.9213 83.4693 38.392 83.3469 38.3884C82.7765 38.3779 82.1342 38.1901 81.5654 38.3192C81.4877 38.3349 81.7048 39.0653 81.5944 39.1001C81.0751 39.2632 80.4863 39.3163 79.9114 39.0412C79.7695 38.9712 79.7692 38.4408 79.7173 38.2905C79.4012 37.3821 79.3713 38.7705 79.335 38.8016C78.4822 39.5826 77.5648 38.4607 76.6816 39.1724C76.6341 39.2141 76.4459 40.7076 76.0754 39.4971C76.0503 39.4165 75.6781 38.1788 75.6503 39.0627C75.6486 39.1179 75.8597 39.7525 75.6537 39.712C75.448 39.6719 75.1976 40.1456 74.8204 39.4689C74.701 39.2556 74.3106 38.0288 74.2072 39.0614C74.2017 39.1342 74.1464 41.4405 73.7724 39.902C73.7113 39.6488 73.4884 38 73.3114 38.8834C73.2778 39.0544 73.438 39.4077 73.3193 39.6563C73.1381 40.0388 72.7603 39.6391 72.5802 40.4057C72.5491 40.5415 72.4992 41.6796 72.2024 40.8566C72.1558 40.7278 72.1265 40.1747 72.0263 40.1249C71.549 39.8858 71.154 40.3056 70.657 39.9828C70.482 39.8695 70.4339 38.9802 70.2379 38.765C70.0414 38.5499 69.6863 38.3649 69.5726 38.7872C69.4601 39.2092 69.8467 40.5843 69.6073 40.7263C68.5682 41.3402 67.35 40.6476 66.2216 40.6528C66.0544 40.6531 66.2578 41.1323 66.0164 41.1676C65.152 41.2985 63.7141 41.877 62.7957 41.0406C62.7956 41.0405 62.7955 41.0404 62.7954 41.0403C62.7651 41.0127 62.7354 40.9836 62.7064 40.9528C61.9802 40.1832 62.6856 39.4755 62.1688 39.1854C61.9204 39.0484 61.869 40.6503 61.82 40.704C61.3497 41.2525 60.882 40.5849 60.4242 40.832C60.3295 40.8827 60.5042 41.509 60.4228 41.5447C60.1456 41.6717 59.807 41.4073 59.5304 41.4736C59.4074 41.5046 59.4878 41.9818 59.3676 41.95C59.081 41.8795 58.8139 41.6882 58.4954 41.2555C58.466 41.2164 58.5612 40.6189 58.3545 40.6074C58.0162 40.5896 57.555 40.1777 57.2307 40.6391C57.1339 40.7781 57.2567 41.8399 56.9247 41.1143C56.8555 40.9625 56.7733 39.6901 56.6163 40.7977C56.59 40.9851 56.282 42.4609 55.9426 41.519C55.8536 41.2713 55.5795 40.2529 55.4604 40.4185C55.4448 40.4445 55.5828 41.0002 55.4753 41.0569C55.0939 41.2464 54.6792 41.1919 54.2859 41.3658C54.1809 41.4128 54.4081 41.9766 54.2495 42.0272C53.8118 42.1663 53.2452 42.0127 52.7807 41.8362C52.6115 41.7697 52.6743 41.3188 52.657 41.2692C52.3806 40.4693 52.3871 41.5478 52.3312 41.6083C51.9873 41.9752 51.6261 41.4702 51.282 41.596C51.1865 41.6287 51.3101 42.1301 51.2951 42.1742C51.1364 42.6024 51.1936 41.7108 51.0539 41.6093C50.668 41.3225 50.2542 41.3594 49.897 41.4127C49.7651 41.4329 49.9745 41.9992 49.8553 42.0096C49.143 42.0814 48.3893 41.9909 47.6567 41.672C47.5198 41.611 47.5618 41.2047 47.5252 41.1104C47.275 40.4544 47.081 41.3375 47.0248 41.4171C46.7696 41.7893 46.6221 41.4291 46.3738 41.4867C45.1467 41.7657 43.5728 41.4648 42.3767 41.3022C40.8207 41.0829 39.5991 40.7471 38.1368 40.8147C38.0437 40.8184 38.1696 41.2472 38.0897 41.2553C37.0567 41.3358 36.0227 41.1621 34.9894 41.2789C34.9041 41.2875 35.0519 41.6688 34.9158 41.6948C34.6382 41.7506 34.2795 41.7281 33.9875 41.6092C33.8458 41.552 34.012 41.2293 33.8701 41.1788C33.5415 41.0611 33.1875 41.0408 32.8599 41.1062C32.7183 41.1349 32.955 41.5098 32.7693 41.5172C31.9125 41.5563 31.0667 41.6181 30.2056 41.524C30.2044 41.5238 30.2032 41.5237 30.202 41.5235C29.83 41.4784 29.4549 41.3999 29.0721 41.27C28.989 41.2418 28.8686 40.4876 28.7037 40.6446C28.7047 40.856 28.722 41.1036 28.7314 41.329C27.0414 41.5646 25.3398 41.4806 23.6571 41.7013C23.5864 41.7107 23.7699 42.0896 23.6342 42.1098C22.8488 42.2281 22.1233 42.4732 21.2586 42.2476C21.1725 42.2261 21.0662 41.5236 20.8544 41.6797C20.8165 41.7077 20.4909 41.8782 20.4365 42.0494C20.4299 42.0748 20.5673 42.3822 20.4599 42.4174C19.8349 42.6164 19.1669 42.7163 18.5035 42.7098C18.3965 42.7082 18.3958 42.3396 18.3181 42.3357C17.7586 42.3139 17.323 42.7503 16.7675 42.6307C16.3941 42.5511 16.2653 41.9461 15.8622 41.4668C15.8055 41.3988 15.6032 41.4745 15.4477 41.1627C15.0529 40.379 14.7629 39.4562 14.3314 38.6257C14.2588 38.4875 14.1037 38.6629 14.0301 38.5064C14.0301 38.5064 14.0301 38.5064 14.0301 38.5063C14.0083 38.4601 13.9933 38.385 13.9909 38.264C13.9895 38.2282 14.1658 37.9702 14.1607 37.7927C14.1566 37.6698 13.9369 37.379 13.9656 37.2069C13.9955 37.0346 14.2102 37.2656 14.2902 37.0464C14.3685 36.8264 14.1496 36.4786 14.4332 36.3145ZM87.2077 33.9374C86.9021 33.311 87.25 35.7233 87.3786 35.114C87.3844 35.0817 87.2232 33.9681 87.2077 33.9374ZM111.628 30.3172C111.335 29.492 111.198 30.7519 111.408 31.3885C111.615 32.0195 111.715 30.5649 111.628 30.3172ZM114.359 29.5797C114.045 28.9568 114.009 31.5337 114.334 30.9945C114.353 30.964 114.377 29.6156 114.359 29.5797ZM16.6013 40.9851C16.5926 40.9706 16.4382 41.0119 16.4409 41.0286C16.5048 41.4258 16.8066 41.3453 16.6013 40.9851ZM117.081 28.9749C117.01 28.6451 116.708 29.0054 116.8 29.4154C116.869 29.7419 117.164 29.3808 117.081 28.9749ZM76.164 33.0223C76.1554 32.9876 76.0323 32.9741 76.0651 33.1722C76.1712 33.8101 76.3083 33.6049 76.164 33.0223ZM121.6 29.7663C120.966 29.524 121.001 27.715 121.699 28.1463C121.824 28.222 121.259 28.5781 121.387 28.7799C121.62 29.1373 122.126 28.1932 122.28 28.8384C122.305 28.9506 121.634 29.7798 121.598 29.7682C121.599 29.7675 121.599 29.7669 121.6 29.7663ZM86.6374 31.0629C86.6284 31.0317 86.4606 31.0271 86.4615 31.0593C86.4932 31.8373 86.8314 31.8474 86.6374 31.0629ZM69.0477 32.6214C69.0297 32.5576 68.6414 32.5533 68.6372 32.615C68.6104 33.8395 69.3984 33.8553 69.0477 32.6214ZM97.4838 27.7645C97.5803 26.9821 97.7877 26.8752 98.0376 27.8164C97.8539 27.783 97.672 27.7933 97.4838 27.7645Z" fill="#B69CBB"/>
</svg>
