<svg width="321" height="66" viewBox="0 0 321 66" fill="none" xmlns="http://www.w3.org/2000/svg">
<path d="M12.0368 3.27536C14.8382 3.17332 17.9996 3.16902 21.2227 3.22402C26.0406 3.30851 30.9973 3.41616 35.1509 3.5239C37.3296 3.57634 36.2226 4.24923 37.7306 4.31161C39.6431 4.3886 41.4599 4.21944 43.2797 4.11813C44.251 4.06432 45.2548 4.03219 46.2807 4.07279C47.2502 4.11557 46.0737 5.21982 47.0803 5.24451C52.6587 5.37893 57.9201 4.76627 63.5595 4.61592C78.1132 4.24078 92.4956 3.71556 106.959 3.5244C112.97 3.44435 118.973 3.33687 125.017 3.20665C132.226 3.05159 139.487 2.8639 146.801 2.67598C156.092 2.43557 167.438 3.06297 177.028 2.12933C178.148 2.01909 177.43 0.924836 177.64 0.822725C180.924 -0.743854 179.916 1.57457 182.11 1.78145C190.841 2.59605 200.499 2.31916 208.872 1.62202C212.437 1.32389 208.784 -0.815394 212.425 0.339137C212.677 0.417257 211.803 1.64512 212.786 1.74541C213.483 1.8161 214.369 1.83266 215.325 1.82431C217.397 1.80622 219.753 1.66887 220.948 1.708C224.263 1.82614 224.826 1.803 227.969 1.76593C228.06 1.76516 228.151 1.76466 228.242 1.76442C232.512 1.75005 237.489 2.29599 242.042 2.05669C243.029 2.00023 241.74 0.727438 243.322 0.52215C244.911 0.313467 249.107 0.477532 250.515 0.815036C251.916 1.14831 251.276 2.14211 251.516 2.37873C253.485 4.37761 258.46 1.86054 259.087 1.8204C263.978 1.54278 268.597 1.8348 273.06 2.39454C276.496 2.82365 279.892 3.35719 283.257 3.86072C285.875 4.24989 288.505 4.66523 291.246 5.09462C295.487 5.75774 299.979 6.56428 304.436 7.88698C306.103 8.37955 308.11 8.16159 309.717 8.85556C311.145 9.47095 312.524 10.1309 313.825 10.8101C314.961 11.4371 316.325 12.2055 317.939 14.0587C319.538 15.7552 321.264 19.7666 320.556 23.3095C320.184 25.5246 319.288 27.1656 318.384 28.3907C317.003 30.1705 316.15 30.639 315.507 31.113C314.844 31.5594 314.342 31.8307 313.901 32.0595C313.013 32.5136 312.305 32.8039 311.656 33.057C310.351 33.5598 309.227 33.9104 308.135 34.234C305.963 34.8706 303.954 35.3629 301.951 35.8535C297.982 36.8178 294.105 37.7361 290.085 38.9773C289.28 39.2236 290.548 40.6265 289.957 41.1247C289.9 41.1726 289.825 41.2122 289.73 41.2416C287.723 41.862 285.721 42.4513 283.718 43.0184C275.785 45.5737 265.869 47.1102 257.496 47.8423C256.138 47.9697 254.768 48.0821 253.443 48.1696C252.215 48.2526 253.47 46.3027 252.218 46.2869C252.177 46.2866 252.136 46.2863 252.094 46.286C244.563 46.1944 232.649 44.8663 229.508 52.755C224.506 53.2559 218.459 53.8739 213.808 53.0656C210.803 52.5468 213.321 50.3299 209.927 51.6134C209.159 51.9002 210.421 53.3365 209.254 53.6456C204.344 54.9438 198.805 55.1825 193.955 56.6484C192.966 56.9506 193.431 58.3307 193.179 58.6229C191.044 61.0014 186.586 58.0893 185.688 57.9479C178.81 56.9163 174.047 58.2012 167.826 58.8088C166.383 58.9475 168.288 60.6674 166.905 60.8681C163.377 61.3651 159.767 61.7406 156.161 61.9523C156.155 61.9526 156.15 61.9529 156.144 61.9533C152.4 62.173 148.662 62.2158 145.026 62.0467C143.435 61.9675 144.768 60.2528 144.003 60.1322C140.641 59.6159 140.104 62.7067 136.876 62.2423C136.199 62.1473 136.491 60.7461 136.36 60.602C134.297 58.3395 132.843 61.7959 132.344 61.8965C126.15 63.2365 122.007 59.8872 116.023 60.5732C115.307 60.6575 116.985 62.3507 114.96 62.4803C101.463 63.3533 87.148 62.8526 73.8612 61.1683C71.7992 60.9094 73.3018 59.6461 73.1743 59.4832C71.1112 56.939 69.6666 60.2486 68.9873 60.3563C68.7349 60.3927 68.4845 60.4207 68.2362 60.4415C66.6875 60.5675 65.2022 60.4223 63.7649 60.2617C60.4735 59.8906 57.5136 59.4378 55.0122 61.9035C45.2066 60.7184 35.5077 60.0602 25.421 58.379C23.0869 57.9602 20.7629 57.5143 18.1362 56.6419C16.2365 55.9986 13.3796 54.8133 11.3999 52.3399C9.5075 50.1403 8.65378 47.0888 8.39947 45.2147C8.39662 45.0235 8.2109 44.2218 8.06764 43.5852C7.67169 41.8457 7.33475 39.9597 7.01905 38.0929C6.24168 33.3919 5.82072 28.4638 6.67863 23.3851C6.73245 23.0708 7.84518 23.6987 7.94639 23.0911C9.27594 17.1941 8.78498 16.8899 9.36122 13.2766C9.53495 12.6256 9.81318 11.8751 10.3512 11.0117C10.7716 10.5563 11.3198 10.1129 11.9679 9.76562C13.0799 9.11487 15.0185 9.08748 16.1333 9.55707C17.3246 10.0045 18.0061 10.6669 18.4892 11.2527C19.4669 12.4614 19.8114 13.5828 19.9225 13.7644C20.4696 14.9943 18.508 15.7306 18.7428 16.0579C20.6039 18.711 23.6291 13.9482 26.8985 15.9526C26.9971 16.0256 25.9536 16.6619 26.1721 16.9249C26.848 17.7497 27.9338 17.8753 28.5946 18.6645C30.0571 20.3913 29.5906 23.7204 33.585 23.1902C34.0589 23.0526 34.6684 19.5823 37.4374 20.2149C37.8562 20.3026 38.8141 20.4299 39.9077 20.4569C41.7825 20.5394 44.0618 20.1367 44.9767 20.0436C46.4263 19.9078 45.7877 21.4242 45.8883 21.4532C50.4603 21.7976 49.1434 22.9401 52.4377 24.3995C54.1277 25.0655 54.2034 24.0135 53.8216 22.7218C53.4461 21.4229 52.7522 19.8017 53.1678 19.2113C54.0462 17.8828 58.6364 18.1777 59.5786 18.6816C60.5891 19.0762 59.5446 20.1199 60.3923 20.3143C65.7712 21.9038 62.5926 16.8531 64.4832 15.6872C69.165 13.0355 72.1046 18.4473 75.683 19.4742C76.6801 19.7491 76.0301 18.4405 76.951 18.4462C80.5998 18.4788 82.446 20.5234 86.7086 19.5713C87.3971 19.4303 91.219 16.5175 92.8586 19.3061C93.0939 19.7125 92.0148 21.0014 93.4595 21.549C95.5949 22.3674 99.5636 23.2847 102.028 23.1008C103.834 22.9607 102.157 20.2734 104.256 21.2964C105.198 21.7538 103.173 22.964 104.972 23.7111C106.731 24.4646 111.499 24.9084 113.291 24.9987C115.107 25.1009 114.276 23.1068 114.436 22.9915C115.358 22.3316 118.831 21.6295 119.118 21.6417C120.012 21.6789 120.921 21.7238 121.796 21.7723C124.907 21.9443 127.918 22.163 130.966 22.362C141.849 23.0548 152.604 24.0677 163.636 22.5861C164.817 22.4293 163.899 20.4314 164.078 20.3864C168.076 19.2678 165.224 24.919 168.185 26.5575C167.503 22.4275 169.228 23.072 172.058 22.4197C173.423 22.1016 172.561 20.543 172.676 20.3695C174.549 17.7815 176.19 20.8392 176.604 21.46C178.127 23.7423 179.402 20.8256 180.438 22.349C181.473 23.8609 179.518 26.3542 182.266 26.126C182.929 24.5797 180.607 20.8341 182.648 20.0505C190.33 17.0842 205.279 19.0349 211.661 18.9496C218.02 18.854 220.08 18.4641 223.8 18.8086C230.548 19.4582 227.952 16.6675 232.11 15.1631C236.274 13.6824 234.455 20.9343 235.099 22.457C235.731 23.9829 236.326 22.3777 237.066 23.2093C237.802 24.0417 236.27 25.1253 237.972 25.4076C239.213 25.6112 241.972 24.1908 243.617 22.799C244.259 22.273 244.735 21.7482 244.904 21.3063C246.236 17.8963 244.071 14.2518 248.762 15.6013C249.024 15.683 248.119 17.5541 249.123 17.7713C249.243 17.7965 249.362 17.8216 249.481 17.8464C257.287 19.4748 265.386 19.8853 273.11 21.6586C274.193 21.9111 273.079 23.9667 273.699 24.1378C280.145 25.9642 278.041 22.2227 282.076 18.5675C280.763 23.7938 282.467 27.1443 287.266 27.8159C287.385 27.8331 287.497 27.8457 287.603 27.8539C289.871 28.0409 290.092 26.2969 291.584 25.0055C291.767 24.85 291.969 24.7013 292.192 24.5633C292.847 24.1599 294.695 26.0798 295.251 25.0531C297.13 21.7137 295.63 17.2983 300.834 19.8612C301.062 19.985 299.898 21.7817 300.705 22.0659C301.593 22.3839 302.389 22.5727 303.15 22.6867C304.474 22.8917 305.685 22.9111 307.082 23.0592C307.859 23.317 308.685 23.7609 309.405 24.3628C312.28 26.9694 312.654 29.8617 312.569 32.3344C312.902 32.1546 313.068 31.9778 313.189 32.2482C313.147 33.4354 316.211 41.181 316.596 49.0093C313.196 49.2304 312.492 50.8918 312.1 52.9621C311.834 53.9181 311.424 54.7101 311.057 55.5349C310.628 56.5443 310.222 57.6066 310.034 58.7141C306.036 60.126 302.636 60.7695 299.346 60.701C298.243 60.6578 298.734 58.8871 298.574 58.7245C296.172 56.1475 295.26 60.1697 294.547 60.3985C287.143 62.6199 280.902 59.9037 273.921 63.0931C273.676 63.2065 273.405 67.3192 271.394 64.3896C271.262 64.1868 273.547 62.2511 270.216 62.2087C269.042 62.193 267.543 61.9362 265.846 61.6881C262.676 61.2216 258.961 60.7818 255.959 62.0659C255.573 62.2303 254.985 62.7434 254.278 63.2354C253.011 64.1604 251.22 65.0092 249.757 63.3242C249.451 62.9739 249.772 61.7955 249.328 61.1451C247.868 59.0733 247.174 63.2205 245.473 59.712C243.788 56.2032 240.36 53.59 235.715 56.0209C235.575 56.0917 234.445 59.3716 233 59.319C230.67 59.233 227.347 58.5448 224.912 58.5589C223.748 58.5668 224.487 60.6016 224.284 60.6382C216.418 61.7476 210.839 59.9001 202.436 59.0526C200.889 58.8941 196.44 61.6125 193.474 59.4052C190.217 56.9907 193.679 47.107 186.13 49.4093C183.092 50.3333 179.103 62.836 173.718 56.2796C163.122 57.768 153.357 54.3377 142.718 56.4849C142.263 56.5803 140.661 60.0328 139.555 59.97C137.926 59.8705 136.975 58.235 135.81 58.1124C135.093 58.0302 134.336 57.9888 133.613 57.9777C131.903 57.9515 130.154 58.097 128.515 58.2593C126.117 58.4838 123.843 58.7377 121.438 58.5934C119.63 58.4865 120.28 56.8229 118.109 56.6936C115.932 56.565 114.448 58.7431 111.517 57.6203C109.305 56.7639 107.185 52.2168 104.269 51.6166C104.055 56.049 102.028 55.9131 98.3805 56.954C97.6933 57.1558 98.3656 58.7256 98.0364 58.9005C96.6576 59.6446 95.4696 58.3139 94.1543 59.1151C93.8423 59.3076 93.7431 60.8183 93.4715 61.0598C91.5573 62.8257 88.8361 60.5702 87.7189 59.3947C87.4918 59.1608 87.3249 58.9705 87.2316 58.8641C86.3593 57.8745 85.644 57.5976 84.9779 57.549C83.9868 57.4766 83.143 57.8876 82.1509 57.2836C80.4164 56.2621 83.191 55.3696 81.1365 54.6738C76.9252 53.2397 71.3936 53.0972 66.9937 52.7632C65.2499 52.6406 66.3178 54.6916 66.0658 54.7201C62.4339 54.991 58.875 52.7261 56.7163 56.5416C54.608 46.3751 54.5058 57.3949 49.462 55.2815C49.061 55.1142 48.5603 50.3895 50.1717 49.7052C51.801 49.0214 54.1717 50.5591 56.39 49.5474C56.9378 49.3113 60.1055 44.9442 60.5454 44.6871C63.8635 42.6806 63.9029 49.8921 64.0438 50.2956C65.6838 54.6594 69.5641 50.0155 70.5651 49.732C74.9948 48.4466 78.6263 49.7234 82.3336 48.8759C84.1499 48.4679 84.9316 45.6952 86.0231 44.4441C86.3939 44.0226 86.7851 43.7735 87.2531 43.8471C87.8627 43.9426 88.4134 44.0954 88.92 44.2868C93.4019 46.0109 95.4023 51.034 100.722 45.9553C101.99 44.7478 100.91 39.451 105.188 43.7074C105.44 43.9758 108.672 47.8461 110.604 45.4829C110.852 45.1852 110.889 43.6483 111.194 43.5251C113.304 42.73 114.723 43.9803 117.012 43.4307C119.304 42.881 122.153 42.0469 124.739 42.6023C126.133 42.8859 127.703 45.0181 128.679 46.0891C128.839 46.2777 128.977 46.4333 129.088 46.5399C130.679 48.0957 132.459 46.5747 133.763 46.8304C134.183 46.9117 134.563 47.172 134.882 47.7664C136.202 50.2478 133.522 53.9568 137.013 55.5953C137.198 51.5919 137.556 47.4845 137.822 43.4585C145.561 43.685 153.165 45.0635 160.933 44.9612C161.901 44.9443 160.937 42.772 161.978 42.6977C166.323 42.3924 170.114 43.9697 174.637 43.3906C178.128 42.9338 181.992 40.6614 185.645 40.1027C187.83 44.7459 193.265 43.2105 197.195 43.6543C198.574 43.8083 198.471 45.0475 199.447 45.4575C203.13 46.9743 201.434 42.86 202.453 42.2187C206.813 39.4772 207.118 48.7791 212.258 48.573C212.524 48.5661 215.882 43.6117 216.336 43.3023C219.239 41.2911 216.795 45.0326 218.621 45.4039C221.941 46.0817 224.228 47.2746 228.136 45.8174C229.257 45.3862 232.002 42.2796 234.181 44.6759C234.474 44.9898 234.313 46.6369 234.548 46.7328C238.754 48.3313 238.893 43.1527 241.255 41.3868C243.674 39.6208 247.376 43.1666 248.128 44.1902C250.143 46.8389 246.625 45.3438 246.533 45.6054C245.304 48.729 247.983 48.1739 250.069 48.4151C250.393 53.4948 253.328 53.1559 252.215 48.6435C252.088 48.1511 250.472 48.6435 250.069 48.4151C250.994 45.6784 252.449 44.2349 254.02 44.2417C255.397 44.2464 256.899 45.247 258.541 47.3309C260.214 49.485 258.716 52.0667 263.69 51.0327C264.962 50.7691 265.209 49.5587 265.533 48.3703C265.781 47.4387 266.096 46.5199 266.958 46.0793C271.428 43.7945 277.386 46.8864 281.987 46.1525C283.635 45.888 281.924 44.0603 283.034 43.8141C285.997 43.1517 288.725 44.4181 291.576 43.4484C291.831 43.3582 291.019 41.4324 291.903 41.3323C294.513 41.0174 296.971 40.8831 299.081 40.741C300.136 40.6705 301.107 40.5909 301.78 40.5296C302.114 40.5008 302.363 40.4754 302.39 40.5214C302.404 40.589 302.228 40.6352 301.262 41.3285C300.563 41.9213 299.088 42.7763 297.469 46.0162C296.743 47.6024 296.638 49.3018 296.699 50.0287C296.853 51.4149 296.561 50.5757 295.35 48.7819C294.211 46.9907 292.464 44.26 291.404 41.006C290.637 38.3214 289.258 34.2778 290.798 27.6486C290.677 28.611 290.607 29.5641 290.856 31.2208C291.118 32.792 291.83 35.5695 294.368 38.2294C295.485 39.3973 296.872 40.3623 298.162 40.971C298.574 41.0451 298.511 40.9718 298.181 40.6949C296.78 39.6164 293.25 38.4647 290.665 38.3487C290.223 38.3254 289.842 38.3367 289.501 38.3743C287.045 38.6659 287.296 40.4609 285.882 41.4748C285.82 41.5223 285.757 41.5665 285.694 41.6074C282.805 43.5083 278.522 38.4401 277.848 37.6607C277.813 37.6289 280.881 37.4445 279.364 36.2514C278.621 34.0015 277.877 37.6545 277.848 37.6607C277.464 37.1267 271.332 36.1936 270.07 36.5139C269.397 36.6819 269.655 38.6168 269.304 38.6681C262.543 39.6215 255.707 39.8965 248.829 39.3594C247.378 39.2375 245.84 39.0872 244.299 38.9054C244.155 38.8661 244.38 36.7433 244.04 36.6776C243.896 36.6485 243.754 36.6227 243.613 36.6001C239.119 35.8805 236.113 38.449 232.325 40.0663C228.41 41.7405 225.181 41.3828 222.597 37.8803C219.558 38.4954 215.039 37.159 212.417 36.3537C209.794 35.5478 209.709 39.6756 209.493 39.7707C202.662 42.8293 198.419 40.7774 191.038 40.9377C187.533 41.0074 180.616 42.0935 176.829 42.7953C173.838 43.3577 171.953 42.5206 169.203 43.308C168.83 43.4133 169.33 45.2058 169.22 45.283C166.239 47.6488 167.454 43.1159 166.761 42.3627C164.24 39.6207 162.721 38.1765 158.804 39.7506C157.907 40.1121 155.549 46.6369 153.859 47.0874C151.662 47.6619 152.394 45.3377 150.103 45.9899C149.905 46.0431 150.008 47.4537 148.567 47.4476C143.037 47.4374 137.045 46.9965 131.117 46.8858C129.793 46.8631 128.49 46.8474 127.212 46.8483C126.184 46.8414 127.469 49.0994 125.975 49.1217C124.185 49.1447 122.352 49.119 120.513 49.0343C115.175 48.7945 109.769 47.9065 105.014 46.3648C103.437 45.8454 104.628 44.4956 104.335 43.9893C102.58 40.9478 99.1174 44.3212 98.603 44.2814C86.807 43.782 78.6319 37.7061 68.9857 37.1013C68.3469 37.0773 64.7472 39.8415 63.6756 36.7031C63.6603 36.4696 62.0477 33.3456 61.5747 35.3517C61.5863 35.4679 62.2021 37.0411 61.5074 36.7864C61.1584 36.6556 61.0208 36.8174 61.0541 36.6207C59.0428 37.5076 56.7406 38.1467 54.4238 38.0389C52.6982 37.9908 49.0032 36.257 44.8737 38.6575C44.721 38.7734 41.779 41.0232 38.7335 41.1712C37.1521 41.2722 35.6531 40.8103 34.9746 39.5174C34.6703 38.8405 35.5617 35.8697 30.4291 35.932C29.432 35.8953 30.8544 37.2753 28.318 36.724C24.3863 35.8135 20.6224 32.3951 16.7727 31.0048C16.0831 30.7917 12.6161 30.4589 12.1011 27.9878C12.0208 27.6085 12.9927 27.1592 12.3412 26.462C11.7021 25.7659 11.0308 25.187 11.0431 25.1161C11.0614 25.103 11.1261 25.1232 11.346 25.2016C11.5533 25.2708 11.9197 25.4113 12.6015 25.5519C13.2635 25.6789 14.3855 25.8599 15.9954 25.6032C17.6047 25.3627 19.4662 24.5171 20.7134 23.4423C20.8534 23.3187 20.9835 23.1853 21.0875 23.0634C21.3433 22.764 21.4098 22.5902 21.3713 22.709C21.3334 22.8193 21.2181 23.1883 21.0809 23.7171C20.8945 24.5799 19.2788 23.9781 18.9511 25.2051C18.6086 26.4366 18.782 29.5546 20.0059 31.0295C21.2246 32.479 23.3305 30.2194 24.3091 32.4712C24.4783 32.8524 24.6486 33.2437 24.8163 33.633C25.4302 35.0704 26.2283 36.4413 26.8619 38.1831C26.9912 38.5467 27.1111 38.8857 27.2553 39.3359C27.3939 39.7827 27.5474 40.2192 27.7912 41.3132C27.9231 41.7994 27.975 41.6971 27.783 41.1605C27.6028 40.6334 27.121 39.7903 26.6747 39.2774C26.4745 39.0313 25.9951 38.5393 25.5517 38.1917C25.1 37.8307 24.7066 37.5928 24.4563 37.4564C23.9503 37.1895 23.9663 37.2389 24.196 37.2999C24.8602 37.506 26.625 37.8568 28.4079 38.0877C31.8458 38.5433 35.7401 38.8107 39.6787 38.8651C41.4967 38.8868 40.0581 37.7344 42.739 37.6569C48.4622 37.494 56.7624 36.7828 64.4384 37.1481C65.9289 37.2182 67.3866 37.3076 68.8206 37.4245C72.6968 37.7437 76.2222 38.2626 78.9083 39.1317C85.924 41.3847 77.0204 42.9503 82.4037 43.8927C85.0134 44.3423 87.841 40.1868 88.4716 40.0555C94.5692 38.7283 98.8085 40.5373 104.29 39.8729C105.416 39.7337 104.282 38.0613 105.241 37.9607C108.515 37.601 111.978 38.2638 115.109 38.0185C116.508 37.9041 116.209 36.6174 117.506 36.6693C120.598 36.7768 123.343 37.2008 126.419 38.2646C126.7 38.3616 124.925 40.0687 127.213 40.0133C130.926 39.9166 135.611 40.8434 139.794 39.3002C141.038 38.8361 140.871 35.8666 143.732 37.7097C144.333 38.0924 143.877 41.7219 146.804 38.3836C147.237 37.9103 150.894 34.4794 153.714 34.9938C153.72 34.9949 153.725 34.9959 153.731 34.997C154.204 35.0872 154.654 35.2905 155.063 35.6405C155.811 36.2807 157.845 39.0322 159.324 38.4185C159.523 38.3241 158.541 36.8106 159.785 36.5259C164.166 35.5492 168.837 35.1989 173.342 34.1503C174.544 33.8665 172.539 32.4294 174.334 32.0582C179.268 31.035 185.539 30.6427 190.495 30.4865C192.322 30.4322 191.261 31.9797 191.412 32.1112C193.846 34.2552 194.657 30.791 195.326 30.5002C199.516 28.733 203.047 29.7892 206.999 28.7729C208.09 28.4958 207.074 27.0444 207.274 26.8709C209.348 25.1535 208.061 28.2358 209.56 28.324C213.741 28.5823 218.245 27.74 222.306 26.8685C223.794 26.5463 221.822 24.9967 223.154 24.7286C231.078 23.098 239.365 21.8304 247.282 21.407C247.417 21.4004 247.533 21.4079 247.634 21.4272C248.667 21.6093 248.141 22.9382 248.472 23.1792C250.052 24.3665 251.622 23.3305 252.733 22.2978C253.337 21.7102 253.847 21.11 254.068 20.9537C256.917 18.9706 258.397 19.9327 260.986 19.0501C265.948 17.3887 268.847 16.1303 275.148 13.988C277.265 13.2948 279.401 12.6499 281.529 12.0645C288.864 10.0473 297.804 7.88131 300.753 6.91633C300.814 6.91214 300.786 6.92813 300.342 7.19696C300.097 7.3505 299.779 7.53738 299.116 8.02897C298.487 8.54733 297.443 9.17393 295.59 11.6128C294.366 13.3174 293.01 15.8186 292.562 19.3907C292.063 22.9377 293.077 27.0798 294.518 29.5518C297.558 34.5428 299.635 34.9705 300.543 35.5851C299.659 35.033 298.838 34.5403 298.022 34.0812C297.087 33.5393 296.805 31.4039 295.811 30.8136C291.493 28.1705 286.304 26.0129 280.442 24.595C277.373 23.8724 274.255 23.2832 270.995 22.9091C270.216 22.8196 269.42 22.735 268.609 22.656C267.601 22.5571 268.478 24.2 267.61 24.1337C256.389 23.21 245.103 22.0065 233.481 22.2397C232.537 22.2566 233.9 23.6511 232.384 23.724C231.156 23.7868 229.836 23.81 228.44 23.793C226.295 23.7656 224.027 23.6397 222.082 23.3909C220.52 23.1962 222.592 22.0098 221.015 21.8397C219.323 21.6568 217.564 21.5563 215.805 21.5338C213.74 21.508 211.667 21.5838 209.64 21.754C208.029 21.8922 210.501 23.2108 208.411 23.2825C194.197 23.8086 180.148 24.6327 165.577 23.4799C164.579 23.4007 163.578 20.65 161.49 21.2775C161.366 22.0582 161.416 22.9679 161.384 23.7979C149.561 24.5649 137.757 24.885 125.909 25.0864C119.851 25.1894 113.807 25.26 107.733 25.3536C104.7 25.4003 101.671 25.424 98.624 25.4385C97.7383 25.4417 99.3148 26.8754 97.6026 26.8848C87.64 26.9462 77.9893 27.0408 67.7762 25.4697C66.7659 25.3168 67.2176 23.0385 64.2553 23.3359C63.7403 23.3906 59.2531 23.611 58.1189 24.0619C57.9628 24.1296 58.8071 25.1781 57.3563 25.1706C52.8847 25.1376 48.274 24.9922 43.7006 24.7801C39.631 24.5959 35.6163 24.3188 31.6936 23.9955C30.3367 23.882 31.7773 22.9098 30.8108 22.8221C27.671 22.5435 24.4116 22.5433 21.175 22.549C17.3445 22.5561 13.5341 22.5329 10.0066 22.0238C5.65901 21.39 7.27024 19.705 4.97137 18.0147C4.66383 17.7765 1.94086 17.7138 1.82488 16.7408C1.49169 14.2938 2.81876 11.6299 2.30127 9.02012C2.2317 8.58607 0.0448233 8.82755 0.000289917 8.34749C0.000289917 8.34739 0.000289917 8.34729 0.000289917 8.34718C-0.0092059 8.20476 0.214945 7.99772 0.72624 7.69343C0.887447 7.60333 3.51477 7.17806 4.15076 6.72383C4.61062 6.41002 3.81398 5.41432 4.71985 5.01547C5.66441 4.61726 6.62226 5.45439 8.15307 4.98848C9.67956 4.51612 9.01988 3.3876 12.0368 3.27536ZM200.559 32.8038C198.03 31.0073 198.201 38.2336 200.655 36.3283C200.773 36.2277 200.688 32.8916 200.559 32.8038ZM153.054 50.4512C156.137 53.6401 158.353 49.0259 156.165 46.5664C153.997 44.1117 152.106 49.4853 153.054 50.4512ZM120.552 52.3355C124.196 54.8646 124.901 44.7853 120.95 46.7682C120.724 46.8801 120.345 52.1887 120.552 52.3355ZM15.719 17.6163C15.6874 17.5704 13.7435 17.5149 13.6999 17.56C12.6601 18.6525 16.5397 18.7629 15.719 17.6163ZM88.4772 53.7771C89.5053 55.229 92.8611 53.8677 91.562 52.091C90.7794 51.0002 88.6599 51.5232 88.2568 52.6281C88.1951 52.8006 88.1763 52.9877 88.2125 53.1854C88.2469 53.374 88.3325 53.5725 88.4772 53.7771ZM75.3583 22.44C75.3307 22.342 73.9815 22.0663 73.9443 22.5778C73.8082 24.2163 75.751 24.0526 75.3583 22.44ZM33.7737 51.1344C33.8383 51.1427 33.9021 51.1512 33.9682 51.1602L33.8766 51.1555C33.9575 51.1628 34.0378 51.1708 34.1175 51.1796C42.3036 52.0018 45.3227 60.3632 37.4631 58.5293C35.9363 58.2407 40.9365 56.3481 39.0426 55.4708C37.1999 54.6504 35.5557 55.5611 33.9523 56.242C33.8737 56.2755 33.7949 56.3085 33.7159 56.3407C33.6938 56.34 33.6277 56.3367 33.6056 56.3352C32.089 56.9254 29.393 56.6447 28.2325 54.6824C27.9818 54.2857 29.5812 53.7195 31.0378 52.947C32.5043 52.1843 33.5478 51.0846 33.7872 51.1247C33.7827 51.1279 33.7782 51.1312 33.7737 51.1344ZM198.558 24.2507C198.502 24.1588 196.576 24.2082 196.538 24.3059C195.667 26.667 199.543 26.5704 198.558 24.2507ZM7.90278 28.924C7.74219 29.0584 8.27703 33.6954 8.45996 33.8075C11.0834 35.6533 9.89749 26.7307 7.90278 28.924ZM316.446 49.1426C317.575 50.6403 317.918 53.1424 316.978 55.2784C315.863 57.6096 314.459 58.4485 313.378 58.9012C312.105 59.3684 311.008 59.2208 310.047 58.7117C310.774 58.4451 311.567 58.1015 312.438 57.538C313.29 56.9533 314.352 56.1981 315.244 54.4553C316.124 52.7244 316.445 50.7864 316.446 49.1426Z" fill="#E1BEE7"/>
</svg>
