<svg width="351" height="338" viewBox="0 0 351 338" fill="none" xmlns="http://www.w3.org/2000/svg">
<path d="M268.508 7.62664C267.781 11.5314 266.927 16.8304 266.321 20.8859C266.132 22.1489 265.992 21.4773 265.854 22.3578C265.587 24.0841 265.537 25.6823 265.284 27.4152C265.202 27.9695 264.927 27.2448 264.848 27.8292C264.415 31.084 264.276 34.1962 264 37.5242C263.306 45.9275 262.903 54.3187 262.658 62.7554C262.657 62.7902 262.656 62.825 262.655 62.8599C262.428 70.836 262.336 78.8391 262.153 86.9503C262.042 92.4828 261.48 99.1815 261.452 104.898C261.45 105.565 261.899 105.193 261.93 105.322C262.411 107.344 261.553 106.629 261.38 107.922C261.165 109.525 260.977 111.189 260.813 112.868C260.806 112.939 260.799 113.011 260.792 113.083C260.446 116.695 260.242 120.375 260.165 123.71C260.118 125.816 261.158 123.767 260.521 125.852C260.477 125.996 260.018 125.432 259.931 126.004C259.736 127.302 259.68 129.787 259.583 130.795C259.394 132.74 259.381 133.062 259.274 134.906C259.125 137.426 258.721 140.409 258.712 143.117C258.711 143.693 259.265 142.957 259.313 143.88C259.36 144.808 259.217 147.235 259.063 148.049C258.908 148.866 258.509 148.499 258.409 148.641C257.564 149.802 258.574 152.664 258.593 153.027C258.863 159.639 258.147 165.282 258.167 171.482C258.174 173.011 258.21 174.572 258.262 176.141C258.265 176.257 258.269 176.373 258.273 176.489C258.38 179.625 258.543 182.77 258.62 185.684C258.762 191.013 258.679 195.55 259.024 200.73C259.06 201.276 259.663 200.6 259.708 201.266C260.196 208.348 260.643 215.393 260.821 222.475C260.838 223.19 260.195 222.323 260.179 223.039C260.085 227.396 259.646 234.387 262.388 236.68C262.594 239.495 262.887 242.898 262.753 245.522C262.747 245.627 262.741 245.731 262.734 245.834C262.729 245.903 262.723 245.966 262.716 246.024C262.56 247.43 261.819 246.087 262.329 248.021C262.449 248.472 262.909 247.803 263.049 248.484C263.645 251.365 263.99 254.558 264.825 257.346C264.996 257.916 265.448 257.663 265.567 257.809C266.538 259.034 265.877 261.535 265.913 262.06C266.162 265.979 267.151 268.649 268.206 272.097C268.454 272.894 268.793 271.757 269.054 272.511C270.408 276.44 271.869 280.459 273.23 284.3C273.535 285.161 272.671 284.625 272.79 285.049C273.329 286.907 274.498 286.843 275.077 288.587C275.202 288.955 274.663 288.975 274.645 289.062C274.367 290.438 275.884 290.761 276.036 291C277.998 294.021 278.017 296.646 279.948 299.586C280.182 299.936 280.242 298.802 280.866 299.803C280.896 299.852 280.926 299.9 280.957 299.949C281.06 300.114 281.164 300.28 281.267 300.445C285.061 306.529 290.855 311.791 296.798 316.218C297.756 316.928 296.781 316.876 296.811 316.966C297.35 318.419 298.7 317.772 299.054 317.931C301.85 319.217 303.927 321.503 306.482 321.105C308.693 322.326 310.97 323.439 313.284 324.482C313.463 324.563 313.642 324.643 313.82 324.722C322.178 328.378 332.386 329.318 340.635 327.287C340.743 327.251 340.861 327.204 340.944 327.171C341.196 327.074 341.418 326.936 341.633 326.717C341.704 326.638 342.115 327.168 342.273 326.975C343.178 325.657 342.917 324.67 342.607 324.137C342.253 323.557 341.7 323.155 340.928 322.091C340.557 321.595 341.654 319.475 341.711 319.255C341.966 318.545 343.085 318.964 343.114 318.737C343.284 316.897 340.466 317.834 339.603 316.007C339.57 315.937 339.539 315.862 339.511 315.783C339.504 315.765 339.498 315.746 339.491 315.727C339.485 315.697 339.681 315.694 339.861 315.674C339.981 315.666 340.094 315.647 340.132 315.59C340.141 315.578 340.147 315.565 340.147 315.55C340.171 315 339.748 314.632 339.698 314.095C339.574 312.906 340.539 311.339 338.354 310.538C338.069 310.47 337.108 312.053 335.706 310.88C335.184 310.361 332.109 308.72 331.186 308.251C330.305 307.743 331.183 307.441 331.129 307.389C328.831 305.585 329.928 305.668 328.957 304.025C327.934 302.398 327.422 305.289 326.771 305.421C326.123 305.55 324.293 304.319 323.842 303.958C323.398 303.593 324.132 303.378 323.716 303.127C320.932 301.495 322.039 304.191 320.947 304.396C318.378 304.905 317.031 302.386 314.928 301.656C314.349 301.456 314.711 302.058 314.178 301.975C313.774 301.912 313.381 301.814 313.039 301.71C312.994 301.691 312.908 301.667 312.826 301.65C312.008 301.503 310.743 301.566 309.372 302.52C309.03 302.733 307.826 304.64 306.328 304.227C306.112 304.165 306.342 303.451 305.486 303.69C304.203 304.045 301.965 304.97 300.768 305.783C299.891 306.38 301.394 306.685 300.071 307.025C299.487 307.174 300.21 306.183 299.134 306.502C298.05 306.821 295.544 308.15 294.594 308.679C293.653 309.199 294.517 309.58 294.464 309.665C294.123 310.169 292.479 311.469 292.322 311.555C289.104 313.351 285.905 314.919 282.699 316.448C282.518 316.534 282.336 316.62 282.153 316.704C277.114 319.02 271.884 319.701 266.733 320.812C266.018 320.96 266.626 321.715 266.518 321.746C264.153 322.466 265.726 319.966 263.941 319.463C264.424 321.123 263.371 320.964 261.708 321.366C260.897 321.561 261.425 322.166 261.359 322.243C260.228 323.408 259.265 322.201 259.002 321.96C258.056 321.074 257.358 322.327 256.718 321.73C256.097 321.133 257.256 320.033 255.63 320.212C255.244 320.878 256.601 322.37 255.406 322.761C250.767 324.27 241.962 323.716 238.19 323.854C234.402 324.006 233.184 324.21 231.02 324.132C226.998 323.992 228.588 325.135 226.159 325.882C223.696 326.631 224.713 323.457 224.311 322.818C223.928 322.177 223.601 322.885 223.149 322.548C222.698 322.211 223.594 321.699 222.579 321.627C221.553 321.555 218.858 322.918 218.554 323.638C217.887 325.165 219.257 326.633 216.506 326.267C216.346 326.244 216.805 325.395 216.196 325.351C214.629 325.241 213.033 325.197 211.377 325.181C211.372 325.182 211.357 325.182 211.352 325.183C211.21 325.178 211.068 325.174 210.925 325.17C207.919 325.084 204.844 325.07 201.872 324.84C201.229 324.788 201.763 323.851 201.388 323.811C197.44 323.388 198.907 324.87 196.845 326.67C197.238 324.371 195.981 323.026 193.024 323.129C191.251 323.19 191.593 324.175 190.462 324.923C190.118 325.149 188.829 324.514 188.625 324.992C187.933 326.554 189.196 328.224 186.105 327.662C185.969 327.634 186.366 326.778 185.898 326.745C182.875 326.53 182.605 328.148 179.355 328.47C176.837 328.721 172.283 327.913 169.372 327.863C169.338 325.282 166.642 325.973 165.592 327.794C163.699 327.792 161.703 327.968 159.868 327.789C159.238 327.728 159.622 326.965 159.54 326.887C158.284 325.663 157.54 327.427 157.137 327.51C152.763 328.334 149.145 327.148 145.008 328.589C144.861 328.641 144.685 330.451 143.516 329.177C143.441 329.089 144.796 328.219 142.821 328.227C140.853 328.236 137.099 327.405 134.396 328.34C133.741 328.566 132.12 330.093 130.734 328.997C130.55 328.848 130.727 328.323 130.458 328.044C129.589 327.156 129.199 328.998 128.161 327.483C127.126 325.967 125.036 324.878 122.319 326.048C122.232 326.083 121.635 327.555 120.765 327.564C119.375 327.577 117.398 327.346 115.957 327.408C115.266 327.439 115.741 328.323 115.622 328.344C110.974 329.02 107.647 328.339 102.637 328.175C101.72 328.143 99.1474 329.472 97.3332 328.565C95.347 327.573 97.197 323.063 92.7526 324.287C90.9669 324.776 88.8955 330.493 85.5544 327.7C79.3017 328.666 73.4306 327.401 67.1784 328.696C66.8935 328.754 66.0982 330.363 65.4079 330.371C64.4057 330.379 63.8328 329.666 63.129 329.648C60.1776 329.552 57.4888 330.3 54.635 330.332C54.05 330.339 53.8894 330.109 53.6544 329.903C53.6263 329.879 53.5972 329.856 53.5663 329.833C53.3735 329.692 53.1111 329.578 52.6001 329.585C51.2759 329.606 50.5562 330.642 48.7243 330.246C47.3812 329.941 45.9791 327.974 44.2008 327.842C44.2384 329.84 43.0398 329.863 40.9233 330.499C40.5234 330.622 40.9946 331.285 40.8075 331.378C40.0677 331.768 39.2634 331.242 38.5391 331.662C38.3618 331.763 38.3904 332.429 38.2485 332.548C37.0891 333.579 34.8382 332.195 34.5033 331.962C33.0394 331.071 32.4773 331.951 31.3937 331.634C30.2983 331.326 31.8678 330.757 30.607 330.612C28.0313 330.316 24.7534 330.676 22.1587 330.873C21.1218 330.957 21.891 331.679 21.7439 331.709C19.624 332.063 17.3958 331.484 16.3597 333.052C14.4965 329.452 15.1086 333.526 11.9947 333.091C11.7458 333.057 11.2402 331.445 12.1455 331.066C13.034 330.685 14.5051 331.043 15.7464 330.487C16.0351 330.364 17.6431 328.447 17.855 328.304C19.6873 327.219 20.1397 329.995 20.2638 330.141C21.5255 331.706 23.4852 329.6 24.0423 329.395C26.5488 328.518 28.8004 328.743 30.8919 328.096C32.3034 327.674 32.2659 325.609 33.3989 325.565C37.06 325.425 38.5654 328.324 41.8382 325.495C42.5499 324.891 41.7288 322.573 44.4417 324.252C44.611 324.355 46.6968 325.943 47.7584 324.796C47.8947 324.651 47.8561 323.955 48.0426 323.886C49.3098 323.433 50.1673 323.943 51.5262 323.608C52.0614 323.476 52.6454 323.323 53.2608 323.196C53.2889 323.191 53.317 323.185 53.3452 323.179C54.2293 322.993 55.178 322.868 56.1241 322.966C57.1066 323.064 58.3519 324.314 58.8196 324.613C60.1247 325.476 61.4901 323.909 62.2978 324.989C63.1386 326.073 61.6566 327.836 63.774 328.47C63.7744 326.65 63.874 324.779 63.922 322.948C68.5193 322.818 73.1001 323.221 77.685 322.961C78.2588 322.927 77.6324 321.974 78.2475 321.912C80.836 321.656 83.1264 322.264 85.7858 321.886C87.847 321.59 90.0962 320.472 92.2499 320.132C93.6703 322.156 96.8367 321.334 99.2026 321.438C100.03 321.473 99.9886 322.029 100.577 322.188C102.794 322.776 101.699 320.982 102.29 320.672C104.839 319.35 105.207 323.484 108.251 323.271C108.41 323.261 110.317 320.983 110.577 320.837C112.266 319.879 110.89 321.594 111.975 321.719C113.956 321.946 115.359 322.423 117.643 321.695C118.31 321.48 119.883 320.05 121.235 321.065C121.412 321.198 121.343 321.929 121.483 321.967C124.019 322.589 124.003 320.3 125.413 319.476C126.824 318.652 129.096 320.152 129.565 320.59C130.789 321.724 128.678 321.124 128.618 321.242C127.917 322.641 129.525 322.348 130.767 322.42C131.027 324.653 132.751 324.456 132.053 322.486C131.974 322.271 131.019 322.514 130.767 322.42C131.773 320.185 133.663 319.839 135.835 321.816C136.853 322.742 135.962 323.895 138.934 323.379C140.282 323.146 139.703 321.626 140.883 321.164C143.577 320.112 147.173 321.422 149.986 321.096C151.005 320.978 149.979 320.173 150.674 320.063C152.517 319.77 154.172 320.343 156.025 319.954C156.192 319.918 155.748 319.054 156.326 319.022C160.697 318.767 164.559 319.193 169.12 319.046C171.351 318.973 175.268 318.349 177.573 318.362C181.54 318.381 186.498 319.468 189.857 319.031C192.078 318.749 191.549 317.896 192.471 317.266C194.219 316.048 197.591 317.981 198.012 318.283C198.028 318.293 196.147 318.572 197.174 318.98C197.797 319.888 197.991 318.288 198.012 318.283C198.296 318.479 202.142 318.523 202.856 318.327C203.27 318.219 203.002 317.405 203.218 317.365C205.672 316.91 208.112 316.576 210.536 316.371C210.677 316.359 210.819 316.347 210.959 316.336L210.819 316.344C213.375 316.098 215.821 315.996 218.378 316.03C218.469 316.041 218.393 316.965 218.606 316.98C221.611 317.205 223.392 315.974 225.857 315.162C228.218 314.357 230.253 314.459 231.759 315.925C233.641 315.611 236.304 316.129 237.868 316.439C239.382 316.752 239.512 314.99 239.634 314.948C243.717 313.57 246.202 314.404 250.514 314.214C252.594 314.128 256.589 313.528 258.744 313.115C260.428 312.791 261.528 313.065 263.038 312.623C263.238 312.564 262.928 311.849 262.987 311.813C264.598 310.707 264.02 312.62 264.426 312.895C265.878 313.89 266.826 314.394 268.888 313.464C269.361 313.25 270.253 310.431 271.014 310.104C272.035 309.672 271.854 310.672 272.895 310.168C272.984 310.124 272.798 309.589 273.452 309.427C274.908 309.059 276.278 308.661 277.638 308.077C277.768 308.021 277.899 307.963 278.029 307.904C279.742 307.09 281.459 306.26 283.108 305.386C283.595 305.131 282.548 304.676 283.245 304.298C286.523 302.518 290.235 300.741 293.769 299.513C294.64 299.214 294.389 299.981 294.646 300.052C296.218 300.469 297.1 298.384 297.361 298.239C299.546 296.959 301.694 296.048 304.012 295.261C305.174 294.871 306.365 294.514 307.729 294.183C309.177 293.897 310.362 293.404 313.495 293.571C313.916 293.61 314.525 293.699 315.111 293.86C316.375 294.235 317.831 294.554 319.445 294.797C319.792 294.843 322.951 294.046 323.926 295.661C323.997 295.77 324.912 297.389 326.279 296.829C326.365 296.795 325.745 295.9 327.126 296.371C328.501 296.84 330.951 297.13 332.682 298.605C333.244 299.08 334.167 300.837 336.476 300.812C336.563 300.734 340.797 300.347 340.996 302.544C341.02 302.925 339.845 304.046 342.538 305.168C343.064 305.419 342.566 304.422 343.824 305.284C345.784 306.66 347.516 309.659 349.195 312.663C349.209 312.688 349.227 312.716 349.247 312.748C349.298 312.806 349.372 312.881 349.46 312.973C349.963 313.488 350.905 314.588 350.466 315.866C350.38 316.111 349.748 315.85 349.842 316.572C350.05 320.085 351.861 323.553 348.924 329.867C347.484 332.009 347.567 330.552 345.547 332.222C345.214 332.454 344.824 332.695 344.38 332.921C344.113 333.052 343.804 333.19 343.548 333.291C341.772 333.984 340.155 334.295 339.194 334.8C337.893 335.451 339.677 336.523 337.583 336.981C328.6 338.684 320.037 336.72 312 333.465C310.875 332.992 311.539 333.739 310.12 333.189C310.047 333.16 309.967 333.127 309.88 333.089C309.772 333.042 309.663 332.994 309.553 332.946C303.708 330.513 293.832 325.669 289.837 321.443C286.605 318.084 291.599 320.989 289.006 318.663C287.779 317.549 285.405 317.57 285.051 317.326C281.645 315.038 280.092 312.484 277.583 309.695C277.067 309.107 277.056 310.096 276.62 309.582C275.46 308.213 274.518 306.57 273.643 304.999C273.545 304.82 273.445 304.642 273.344 304.466C273.222 304.254 273.098 304.045 272.972 303.84C272.508 303.09 272.185 303.468 271.809 302.739C270.911 301.002 270.245 299.384 269.739 297.488C269.693 297.315 270.752 298.078 270.096 296.788C269.034 294.693 268.139 291.912 266.626 289.634C266.175 288.953 265.192 289.365 265.174 287.475C265.173 287.079 266.513 287.014 264.734 285.584C264.432 285.357 261.804 282.726 262.136 280.813C262.222 280.316 262.817 278.909 262.357 278.061C262.29 277.945 261.926 278.627 261.617 277.885C260.541 275.267 259.744 272.41 258.831 269.661C258.588 268.931 258.32 270.192 257.977 269.091C257.027 266.05 256.309 262.126 255.918 259.057C255.775 257.932 256.388 258.612 256.424 258.521C257.01 257.067 255.758 256.49 255.618 256.07C254.767 253.42 254.994 251.282 254.53 248.8C254.405 248.117 253.932 248.674 253.866 248.543C253.222 247.17 254.315 248.116 254.311 247.194C254.311 247.146 254.311 247.097 254.31 247.048C254.31 246.881 254.308 246.713 254.305 246.542C254.255 244.212 253.935 241.719 253.63 239.439C253.507 238.528 252.996 239.623 252.893 238.802C252.274 233.932 251.856 228.839 251.792 224.051C251.781 223.145 252.305 223.67 252.397 223.473C253.048 222.124 251.858 220.32 251.725 219.895C251.117 217.95 251.479 217.15 251.27 215.413C250.239 206.91 249.929 196.328 249.841 188.232C249.79 184.076 249.831 180.282 249.903 176.596C249.905 176.477 249.908 176.359 249.91 176.241C250.025 170.696 250.202 165.377 250.3 159.41C250.311 158.773 249.677 159.401 249.679 158.851C249.745 151.723 250.346 144.747 250.638 137.651C250.663 137.069 250.041 137.875 250.064 136.94C250.106 135.019 250.311 132.598 250.632 130.681C250.787 129.743 251.174 131.037 251.32 130.093C251.661 127.899 251.876 125.542 251.961 123.278C251.996 122.312 251.321 123.728 251.411 122.477C251.649 119.144 251.883 115.837 252.151 112.546C252.157 112.474 252.162 112.403 252.168 112.331C252.579 107.283 253.232 102.249 254.131 97.1402C254.236 96.553 255.288 96.0948 255.208 94.8329C254.942 94.7249 254.62 94.7136 254.331 94.6577C255.277 83.9972 256.575 73.4333 256.831 62.7591C256.832 62.724 256.833 62.6889 256.833 62.6538C256.875 60.9636 256.917 59.3659 256.963 57.6723C256.978 57.1443 256.565 58.0463 256.592 57.0257C256.747 51.1381 256.856 45.3515 257.581 39.3393C257.654 38.7377 258.32 39.0721 258.321 37.3177C258.319 37.0002 258.398 34.3498 258.301 33.6335C258.285 33.5379 257.931 34.0045 257.983 33.1398C258.285 28.1705 258.827 22.9047 259.632 17.9532C259.765 17.1435 259.996 18.0498 260.093 17.4769C260.78 13.4546 261.196 8.97812 262.381 5.14446C263.2 2.58979 263.547 3.69665 264.48 2.47851C264.603 2.30908 265.123 0.729386 265.482 0.766182C266.349 0.861953 266.977 1.87574 267.931 1.88782C268.083 1.88135 268.414 0.777066 268.566 0.876567C268.566 0.876582 268.566 0.876596 268.567 0.876611C268.612 0.898148 268.644 0.997901 268.65 1.26631C268.644 1.32854 268.325 2.69938 268.39 3.0753C268.424 3.34401 268.881 3.01546 268.871 3.54138C268.873 4.03876 268.446 4.49752 268.401 5.36951C268.37 6.22762 268.824 5.94757 268.508 7.62664ZM244.865 317.79C246.347 318.511 246.311 315.46 244.835 316.3C244.766 316.344 244.79 317.755 244.865 317.79ZM73.1476 325.661C75.0881 327.009 76.2488 324.866 74.9111 323.818C73.5408 322.771 72.5617 325.252 73.1476 325.661ZM53.9267 327.522C56.1221 328.548 56.2623 323.951 53.995 324.982C53.8643 325.041 53.7993 327.463 53.9267 327.522ZM263.202 8.82825C263.221 8.80279 263.455 7.66346 263.445 7.64216C263.188 6.95942 262.718 9.23922 263.202 8.82825ZM34.8573 329.699C35.5454 330.246 37.5076 329.439 36.6029 328.754C35.8621 328.208 33.9847 329.026 34.8573 329.699ZM315.16 300.446C315.176 300.489 315.959 300.713 315.996 300.503C316.096 299.826 314.95 299.744 315.16 300.446ZM2.48496 333.331C7.24074 332.471 10.4857 334.875 5.30464 335.174C4.36257 335.253 7.1914 334.109 5.96422 334.045C3.72784 333.987 2.53072 335.675 0.162307 335.223C-0.252192 335.169 2.21976 333.395 2.49279 333.326C2.49018 333.328 2.48757 333.329 2.48496 333.331ZM245.981 321.376C246.016 321.414 247.165 321.356 247.186 321.314C247.724 320.301 245.415 320.413 245.981 321.376ZM340.188 328.351C340.138 328.354 337.715 328.931 337.63 328.971C337.082 329.667 338.094 329.825 339.088 329.591C340.095 329.363 340.907 328.733 340.188 328.351ZM169.324 327.796C168.126 328.858 166.642 329.034 165.598 327.795C166.842 327.816 168.087 327.78 169.324 327.796Z" fill="#E1BEE7"/>
<path d="M243.218 266.479C243.321 266.864 243.4 267.384 243.445 267.786C243.458 267.91 243.391 267.86 243.398 267.948C243.412 268.117 243.473 268.271 243.483 268.438C243.486 268.495 243.385 268.444 243.39 268.504C243.419 268.822 243.507 269.123 243.556 269.439C243.655 270.071 243.764 270.697 243.878 271.32C243.878 271.32 243.878 271.32 243.878 271.321C244.049 272.257 244.245 273.21 244.445 274.164C244.555 274.687 244.623 275.34 244.79 275.869C244.81 275.932 244.884 275.876 244.893 275.886C245.045 276.052 244.861 276.025 244.869 276.152C244.898 276.656 245.02 277.201 245.169 277.658C245.232 277.853 245.36 277.615 245.311 277.837C245.308 277.852 245.2 277.823 245.203 277.88C245.211 278.01 245.285 278.238 245.301 278.336C245.331 278.524 245.34 278.554 245.382 278.73C245.438 278.968 245.458 279.263 245.544 279.514C245.563 279.568 245.65 279.472 245.69 279.555C245.73 279.638 245.78 279.87 245.774 279.954C245.769 280.037 245.675 280.023 245.659 280.041C245.522 280.191 245.817 280.407 245.832 280.44C246.089 281.044 246.09 281.609 246.237 282.196C246.349 282.642 246.519 283.108 246.621 283.533C246.741 284.04 246.777 284.483 246.913 284.972C246.927 285.023 247.073 284.928 247.091 284.99C247.284 285.658 247.442 286.326 247.494 287.023C247.499 287.092 247.322 287.04 247.318 287.111C247.295 287.548 247.121 288.272 247.891 288.363C247.933 288.643 247.991 288.993 247.904 289.271C247.848 289.451 247.626 289.335 247.752 289.517C247.78 289.559 247.928 289.465 247.958 289.529C248.087 289.797 248.108 290.117 248.262 290.376C248.294 290.428 248.439 290.38 248.47 290.39C248.722 290.473 248.418 290.783 248.402 290.836C248.293 291.246 248.436 291.507 248.514 291.855C248.533 291.937 248.719 291.795 248.745 291.872C248.782 291.986 248.814 292.1 248.842 292.214C248.842 292.214 248.842 292.215 248.842 292.215C248.915 292.513 248.956 292.806 248.955 293.103C248.953 293.194 248.749 293.154 248.739 293.2C248.695 293.399 249.058 293.373 249.023 293.564C249.016 293.604 248.851 293.617 248.835 293.628C248.582 293.79 248.996 293.802 249.012 293.828C249.214 294.151 248.848 294.459 248.983 294.785C248.999 294.824 249.188 294.69 249.223 294.801C249.453 295.54 249.582 296.357 249.555 297.148C249.552 297.274 249.366 297.217 249.347 297.229C249.045 297.409 249.495 297.407 249.52 297.445C249.7 297.734 249.373 298.074 249.942 298.221C249.936 298.653 250.04 299.081 249.88 299.77C249.88 299.771 249.88 299.772 249.88 299.772C249.793 300.174 249.521 300.821 249.005 301.161C248.512 301.502 248.052 301.595 247.689 301.555C247.686 301.554 247.684 301.554 247.681 301.554C247.184 301.488 246.825 301.319 246.495 301.057C246.48 301.046 246.571 300.702 246.541 300.681C246.185 300.422 246.163 300.976 245.783 301.614C245.688 301.776 245.641 300.93 245.635 300.866C245.613 300.635 245.773 300.113 245.76 300.067C245.645 299.698 245.36 301.467 245.13 301.437C245.123 301.433 245.21 301.11 245.196 301.075C245.153 300.964 245.072 301.085 245.032 300.963C244.942 300.683 245.035 299.804 244.744 300.278C244.707 300.34 244.583 301.363 244.387 301.286C244.342 301.268 244.201 301.248 244.073 301.219C244.072 301.219 244.071 301.218 244.071 301.218C243.98 301.197 243.894 301.171 243.857 301.138C243.767 301.057 243.882 300.737 243.877 300.722C243.665 300.247 243.791 300.081 243.735 299.417C243.673 298.756 243.52 300.295 243.445 300.459C243.369 300.622 243.213 300.238 243.175 300.108C243.137 299.977 243.223 299.775 243.186 299.699C242.934 299.207 242.978 300.444 242.861 300.676C242.588 301.224 242.517 300.076 242.308 299.951C242.254 299.917 242.283 300.176 242.232 300.196C242.028 300.271 241.924 299.915 241.686 300.22C241.643 300.27 241.444 300.921 241.34 300.428C241.326 300.357 241.381 300.085 241.298 300.02C241.174 299.923 240.944 299.857 240.803 299.944C240.702 300.008 240.814 300.455 240.689 300.313C240.633 300.25 240.739 299.994 240.633 299.898C240.524 299.802 240.253 299.812 240.149 299.821C240.046 299.83 240.107 300.159 240.099 300.182C240.051 300.308 239.855 300.464 239.839 300.463C238.97 300.484 238.125 299.987 237.269 300.212C237.203 300.229 237.273 300.541 237.263 300.547C237.044 300.691 237.159 299.845 236.972 299.579C237.049 300.212 236.939 300.104 236.785 300.185C236.71 300.225 236.774 300.465 236.769 300.491C236.686 300.868 236.561 300.396 236.531 300.301C236.418 299.95 236.377 300.378 236.301 300.144C236.226 299.913 236.314 299.552 236.157 299.572C236.134 299.798 236.307 300.369 236.197 300.473C235.79 300.855 234.928 300.502 234.548 300.494C234.548 300.494 234.548 300.494 234.547 300.494C234.543 300.494 234.538 300.493 234.534 300.493C234.174 300.49 234.055 300.546 233.839 300.493C233.443 300.4 233.632 300.804 233.426 301.027C233.218 301.25 233.193 300.2 233.13 299.982C233.067 299.764 233.061 299.998 233.002 299.881C232.944 299.764 233.014 299.601 232.91 299.568C232.802 299.536 232.593 299.968 232.59 300.205C232.585 300.708 232.778 301.209 232.495 301.063C232.478 301.054 232.488 300.775 232.427 300.756C231.95 300.609 231.481 300.664 231.002 300.547C230.937 300.53 230.946 300.22 230.908 300.207C230.504 300.07 230.714 300.559 230.594 301.156C230.526 300.396 230.342 299.953 230.057 299.992C229.885 300.016 229.965 300.34 229.89 300.589C229.867 300.664 229.711 300.457 229.714 300.615C229.721 301.132 229.923 301.68 229.596 301.5C229.582 301.492 229.579 301.209 229.532 301.199C229.226 301.135 229.277 301.668 228.979 301.782C228.743 301.871 228.263 301.619 227.975 301.612C227.841 300.766 227.614 301.003 227.604 301.603C227.421 301.609 227.23 301.674 227.046 301.622C226.982 301.605 226.98 301.354 226.968 301.329C226.783 300.933 226.8 301.513 226.765 301.542C226.38 301.829 225.966 301.458 225.638 301.946C225.627 301.963 225.705 302.554 225.524 302.144C225.512 302.115 225.599 301.826 225.407 301.838C225.214 301.85 224.806 301.597 224.591 301.914C224.539 301.99 224.46 302.494 224.269 302.145C224.243 302.097 224.232 301.926 224.191 301.837C224.059 301.553 224.12 302.153 223.937 301.666C223.756 301.179 223.491 300.837 223.29 301.231C223.283 301.242 223.304 301.723 223.22 301.73C223.086 301.741 222.879 301.677 222.741 301.704C222.676 301.718 222.77 302.002 222.759 302.009C222.345 302.251 221.981 302.048 221.484 302.021C221.392 302.016 221.213 302.458 220.988 302.175C220.74 301.865 220.673 300.4 220.306 300.819C220.158 300.986 220.271 302.839 219.79 301.956C219.232 302.298 218.59 301.919 218.048 302.362C218.024 302.382 218.032 302.904 217.967 302.908C217.871 302.915 217.775 302.688 217.705 302.685C217.409 302.665 217.188 302.915 216.91 302.934C216.805 302.942 216.796 302.691 216.67 302.7C216.544 302.709 216.521 303.047 216.326 302.922C216.178 302.827 215.93 302.192 215.748 302.147C215.862 302.797 215.744 302.805 215.572 303.014C215.539 303.055 215.623 303.273 215.61 303.303C215.556 303.434 215.451 303.26 215.403 303.4C215.391 303.433 215.431 303.655 215.424 303.695C215.363 304.044 215.071 303.583 215.02 303.503C214.827 303.197 214.819 303.497 214.694 303.386C214.569 303.275 214.69 303.085 214.557 303.028C214.283 302.91 213.976 303.005 213.726 303.041C213.627 303.056 213.749 303.34 213.737 303.349C213.546 303.462 213.28 303.186 213.277 303.796C212.851 302.299 213.181 303.967 212.832 303.717C212.804 303.696 212.641 302.981 212.709 302.859C212.778 302.737 212.954 302.937 213.046 302.749C213.068 302.705 213.108 301.999 213.123 301.954C213.242 301.601 213.468 302.673 213.488 302.73C213.714 303.349 213.781 302.583 213.826 302.523C214.027 302.247 214.265 302.36 214.439 302.157C214.553 302.026 214.435 301.318 214.544 301.32C214.908 301.327 215.213 302.288 215.383 301.373C215.42 301.178 215.207 300.42 215.573 300.98C215.596 301.015 215.888 301.534 215.931 301.163C215.937 301.117 215.895 300.892 215.909 300.87C216.007 300.725 216.12 300.89 216.236 300.779C216.352 300.669 216.487 300.512 216.651 300.561C216.75 300.59 216.943 300.987 217.005 301.081C217.182 301.354 217.225 300.846 217.366 301.189C217.509 301.534 217.46 302.108 217.704 302.303C217.603 301.718 217.51 301.115 217.414 300.526C217.855 300.466 218.324 300.575 218.76 300.468C218.815 300.455 218.701 300.151 218.758 300.128C218.997 300.033 219.251 300.218 219.493 300.081C219.68 299.975 219.837 299.603 220.029 299.481C220.278 300.127 220.546 299.844 220.78 299.865C220.862 299.872 220.889 300.051 220.956 300.099C221.206 300.277 221 299.704 221.042 299.6C221.219 299.159 221.48 300.492 221.765 300.407C221.78 300.403 221.843 299.656 221.861 299.607C221.975 299.288 221.933 299.85 222.046 299.884C222.253 299.947 222.412 300.094 222.599 299.845C222.653 299.772 222.73 299.3 222.916 299.622C222.941 299.664 222.973 299.901 222.989 299.912C223.27 300.1 223.145 299.358 223.24 299.083C223.335 298.808 223.638 299.282 223.707 299.422C223.886 299.783 223.648 299.6 223.649 299.638C223.655 300.096 223.797 299.992 223.921 300.009C224.065 300.733 224.223 300.66 224.05 300.024C224.031 299.955 223.951 300.038 223.921 300.009C223.899 299.279 224.069 299.155 224.386 299.786C224.534 300.082 224.509 300.461 224.771 300.279C224.89 300.196 224.754 299.704 224.845 299.548C225.056 299.191 225.474 299.6 225.734 299.48C225.828 299.436 225.685 299.179 225.748 299.14C225.914 299.035 226.104 299.214 226.267 299.078C226.282 299.066 226.193 298.785 226.249 298.772C226.666 298.668 227.067 298.79 227.508 298.723C227.725 298.689 228.076 298.469 228.306 298.465C228.699 298.456 229.24 298.799 229.55 298.647C229.756 298.548 229.664 298.268 229.726 298.058C229.845 297.65 230.264 298.283 230.323 298.382C230.325 298.385 230.149 298.481 230.271 298.614C230.375 298.913 230.321 298.384 230.323 298.382C230.362 298.445 230.739 298.456 230.805 298.39C230.84 298.354 230.777 298.084 230.797 298.071C231.259 297.752 231.742 297.612 232.271 297.669C232.28 297.673 232.309 297.981 232.331 297.987C232.637 298.083 232.782 297.683 232.992 297.429C233.206 297.175 233.412 297.224 233.62 297.732C233.792 297.644 234.078 297.834 234.244 297.958C234.245 297.959 234.245 297.959 234.246 297.96C234.249 297.962 234.252 297.964 234.255 297.966C234.425 298.089 234.375 297.489 234.388 297.476C234.76 297.046 235.041 297.354 235.483 297.346C235.69 297.344 236.093 297.195 236.313 297.093C236.489 297.011 236.602 297.141 236.763 297.022C236.784 297.006 236.738 296.732 236.744 296.72C236.902 296.358 236.869 297.052 236.917 297.168C237.088 297.59 237.191 297.818 237.409 297.576C237.458 297.522 237.546 296.5 237.645 296.424C237.771 296.327 237.745 296.696 237.875 296.588C237.886 296.579 237.867 296.355 237.955 296.351C238.352 296.33 238.792 296.398 239.207 296.319C239.264 296.309 239.178 295.949 239.26 295.927C239.648 295.827 240.081 295.783 240.472 295.924C240.566 295.96 240.507 296.236 240.528 296.314C240.656 296.79 240.833 296.069 240.866 296.051C241.594 295.648 242.125 296.283 242.896 295.985C242.936 295.967 243.332 295.18 243.408 295.873C243.416 295.919 243.478 296.628 243.653 296.158C243.664 296.128 243.616 295.76 243.765 295.809C243.911 295.857 244.189 295.638 244.34 296.059C244.388 296.192 244.438 296.912 244.702 296.379C244.708 296.367 244.763 296.226 244.832 296.074C244.833 296.072 244.834 296.069 244.835 296.067C244.978 295.76 245.184 295.42 245.161 296.011C245.155 296.157 244.995 297.074 245.283 296.642C245.339 296.558 245.297 296.339 245.426 296.232C245.625 296.068 245.803 296.36 246.073 296.004C246.12 295.94 246.377 295.365 246.413 295.863C246.418 295.941 246.33 296.233 246.386 296.283C246.65 296.521 246.983 296.409 247.203 296.691C247.281 296.79 247.151 297.251 247.223 297.404C247.295 297.557 247.455 297.724 247.56 297.53C247.659 297.336 247.693 296.568 247.779 296.54C247.836 296.517 247.863 296.51 247.844 296.517C247.843 296.517 247.843 296.517 247.843 296.517C247.815 296.54 247.577 296.838 247.18 297.387C246.989 297.66 246.805 298.027 246.749 298.323C246.686 298.623 246.726 298.814 246.726 298.898C246.726 298.899 246.726 298.899 246.726 298.899C246.727 298.945 246.728 299.009 246.734 299.041C246.744 299.077 246.562 299.048 246.568 299.071C246.619 299.026 246.366 297.928 246.655 297.408C246.883 296.964 247.163 297.421 247.233 297.095C247.265 296.938 246.714 296.88 246.693 296.847C246.478 296.534 246.674 296.246 246.556 295.944C246.531 295.88 246.333 295.987 246.315 295.934C246.254 295.758 246.315 295.533 246.272 295.358C246.251 295.278 246.098 295.325 246.099 295.246C246.1 295.065 246.141 294.889 246.257 294.685C246.268 294.666 246.475 294.732 246.461 294.6C246.438 294.383 246.533 294.089 246.348 293.869C246.292 293.802 245.951 293.874 246.161 293.667C246.205 293.624 246.621 293.58 246.237 293.47C246.172 293.449 245.653 293.245 245.932 293.026C245.99 292.98 246.204 292.858 246.249 292.771C246.249 292.77 246.249 292.77 246.25 292.769C246.26 292.75 246.261 292.732 246.248 292.718C246.238 292.708 246.067 292.793 246.038 292.725C245.938 292.483 245.912 292.202 245.815 291.951C245.789 291.883 245.625 292.028 245.592 291.925C245.501 291.641 245.492 291.267 245.504 290.972C245.508 290.863 245.664 290.904 245.679 290.893C245.915 290.715 245.558 290.717 245.532 290.68C245.373 290.447 245.505 290.227 245.426 289.998C245.405 289.935 245.252 290.016 245.236 290.007C245.077 289.902 245.378 289.939 245.397 289.848C245.451 289.596 245.395 289.331 245.339 289.097C245.318 289.012 245.154 289.149 245.138 289.071C245.038 288.61 244.987 288.119 245.013 287.643C245.018 287.554 245.157 287.579 245.184 287.555C245.373 287.386 245.061 287.267 245.029 287.231C244.878 287.067 244.981 286.971 244.935 286.808C244.71 286.014 244.637 284.988 244.559 284.209C244.46 283.193 244.434 282.394 244.251 281.444C244.24 281.384 244.118 281.474 244.107 281.423C243.97 280.752 243.912 280.077 243.765 279.407C243.754 279.352 243.653 279.457 243.631 279.369C243.585 279.191 243.555 278.956 243.559 278.764C243.562 278.67 243.676 278.77 243.675 278.676C243.675 278.458 243.643 278.229 243.588 278.016C243.565 277.926 243.48 278.089 243.459 277.969C243.309 277.154 243.155 276.355 243.128 275.504C243.127 275.446 243.317 275.352 243.255 275.241C243.198 275.244 243.133 275.259 243.074 275.268C242.819 274.094 242.648 272.906 242.4 271.723C242.389 271.674 242.308 271.78 242.288 271.685C242.287 271.68 242.286 271.675 242.285 271.669C242.285 271.669 242.284 271.669 242.284 271.668C242.164 271.114 242.021 270.582 241.996 269.997C241.994 269.939 242.175 269.93 242.112 269.766C242.1 269.736 242.023 269.495 241.971 269.434C241.963 269.427 241.891 269.491 241.871 269.41C241.757 268.94 241.67 268.445 241.62 267.96C241.613 267.884 241.716 267.944 241.712 267.89C241.676 267.492 241.524 267.094 241.529 266.697C241.535 266.435 241.704 266.498 241.829 266.337C241.846 266.316 241.824 266.148 241.912 266.127C242.129 266.085 242.378 266.123 242.609 266.066C242.645 266.044 242.619 266.014 242.663 266.001C242.663 266.001 242.663 266.001 242.663 266.001C242.676 266 242.695 266.016 242.723 266.016C242.729 265.997 242.78 266.088 242.828 266.12C242.86 266.138 242.942 266.085 242.986 266.121C243.03 266.161 242.965 266.224 243.022 266.299C243.081 266.374 243.174 266.316 243.218 266.479ZM235.009 298.514C235.18 298.785 235.085 297.727 234.961 297.999C234.955 298.013 235 298.501 235.009 298.514ZM218.465 301.359C218.727 301.785 218.724 301.089 218.535 300.758C218.345 300.427 218.386 301.23 218.465 301.359ZM216.686 302.033C216.96 302.356 216.72 300.877 216.553 301.216C216.543 301.235 216.67 302.014 216.686 302.033ZM241.988 266.944C241.992 266.943 241.974 266.829 241.969 266.828C241.86 266.789 241.896 267.012 241.988 266.944ZM214.927 302.736C215.028 302.923 215.172 302.658 215.046 302.426C214.944 302.239 214.8 302.503 214.927 302.736ZM242.345 299.32C242.345 299.339 242.426 299.362 242.432 299.253C242.451 298.902 242.33 298.994 242.345 299.32ZM211.827 303.332C212.296 303.301 212.801 304.466 212.276 304.422C212.181 304.414 212.398 303.997 212.263 303.909C212.015 303.749 212.018 304.538 211.727 304.169C211.674 304.102 211.8 303.331 211.828 303.33C211.828 303.33 211.827 303.331 211.827 303.332ZM235.228 299.77C235.232 299.784 235.344 299.785 235.345 299.771C235.368 299.429 235.143 299.427 235.228 299.77ZM246.856 300.762C246.856 300.798 247.122 300.866 247.135 300.834C247.354 300.215 246.852 300.071 246.856 300.762ZM227.967 301.59C227.903 301.943 227.769 302.005 227.605 301.603C227.727 301.606 227.845 301.59 227.967 301.59Z" fill="#E1BEE7"/>
</svg>
