<svg width="421" height="17" viewBox="0 0 421 17" fill="none" xmlns="http://www.w3.org/2000/svg">
<path d="M3.83799 0.324011C6.18601 -0.00765729 9.2884 0.116446 11.6459 0.364777C12.4034 0.440723 12.0339 0.933251 12.5442 1.00769C13.563 1.15185 14.4576 0.881285 15.4545 1.06191C15.7903 1.12388 15.4059 1.89582 15.7589 1.94346C17.644 2.20108 19.3973 1.93728 21.293 2.02117C25.5203 2.20803 29.694 2.29346 33.919 2.32557C33.9191 2.32557 33.9192 2.32557 33.9193 2.32557C38.9827 2.36711 44.108 2.33915 49.2945 2.33663C52.4056 2.33517 56.2383 2.87881 59.4408 2.47072C59.82 2.42227 59.5682 1.77427 59.6386 1.71773C60.7239 0.852828 60.3989 2.18906 61.1348 2.33981C64.0967 2.93334 67.2845 2.88421 70.0936 2.54221C71.2839 2.39507 70.0439 1.14339 71.2596 1.82979C71.344 1.87603 71.0694 2.57487 71.3959 2.63795C72.1349 2.77952 73.5402 2.61125 74.1246 2.64728C75.2249 2.72091 75.4039 2.70826 76.4507 2.68318C77.8994 2.65455 79.5809 2.94221 81.1227 2.73997C81.4513 2.69493 80.9901 2.00927 81.5124 1.87475C82.0441 1.74012 83.403 1.76003 83.8793 1.91045C84.3511 2.06111 84.1715 2.61409 84.2583 2.73708C84.9734 3.77435 86.5354 2.26104 86.7306 2.22021C90.4567 1.49736 93.7184 2.23743 97.2208 2.13718C99.8991 2.05978 102.759 1.71446 105.286 1.68697C108.338 1.6556 110.904 1.95527 113.838 1.81965C114.148 1.80623 113.761 1.02894 114.14 1.01129C118.19 0.823902 122.161 0.822745 126.212 1.25322C126.618 1.29697 126.117 1.98728 126.52 2.07134C128.978 2.57383 132.924 3.79861 134.304 0.844869C135.988 0.92294 137.998 0.998857 139.51 1.55165C140.484 1.90715 139.564 2.65373 140.744 2.31732C141.01 2.24237 140.645 1.61488 141.046 1.5508C142.719 1.28251 144.554 1.44952 146.224 1.08846C146.563 1.01361 146.456 0.450094 146.549 0.346374C147.33 -0.493292 148.702 0.842273 148.997 0.934507C151.25 1.62543 152.863 1.30177 154.94 1.27844C155.423 1.27326 154.835 0.531463 155.299 0.499667C157.648 0.349553 160.024 0.362597 162.342 0.62451C162.342 0.624531 162.342 0.624551 162.343 0.624572C162.416 0.632966 162.488 0.641615 162.561 0.650522C163.084 0.716302 162.618 1.36307 162.869 1.42705C163.974 1.70094 164.193 0.493053 165.256 0.733298C165.481 0.782353 165.366 1.32957 165.408 1.38865C166.065 2.31556 166.592 0.974459 166.756 0.942251C168.829 0.503227 170.164 1.86527 172.17 1.6319C172.409 1.60273 171.854 0.926056 172.529 0.886215C177.003 0.617338 181.757 0.727815 186.203 1.20056C186.894 1.27315 186.411 1.79221 186.456 1.85455C187.18 2.82718 187.615 1.50085 187.84 1.44776C189.613 1.06251 191.286 2.13935 192.466 0.554875C199.993 0.982834 207.466 0.010155 214.942 1.30413C215.037 1.31897 214.875 1.96108 215.065 1.9879C217.347 2.31743 216.896 1.32874 218.387 0.0963955C218.763 -0.212779 219.937 1.23896 220.04 1.34489C220.418 1.736 220.044 2.69035 220.169 2.76543C221.208 3.35365 221 0.216417 222.391 0.199852C222.435 0.204576 222.26 0.784089 222.377 0.840144C222.742 1.01612 223.099 0.782567 223.456 0.977128C224.274 1.42757 224.583 2.94625 225.813 2.04551C225.969 1.92876 225.708 0.154832 226.951 0.225327C227.448 0.254798 229.636 0.201061 230.254 0.30953C230.869 0.417803 230.454 0.993407 230.498 1.0177C232.162 1.75487 231.538 2.07459 232.379 3.18244C233.22 4.28558 232.96 1.63422 233.294 1.33447C233.629 1.03559 234.847 1.645 235.147 1.85789C235.446 2.07094 235.079 2.4371 235.345 2.55657C237.112 3.33645 236.102 1.2328 236.677 0.806346C238.031 -0.202405 239.114 1.75085 240.362 1.92991C240.7 1.97839 240.42 1.5345 240.72 1.48975C241.91 1.31867 242.636 1.9228 243.985 1.3496C244.206 1.25599 245.289 0.0696223 246.005 0.926563C246.106 1.05009 245.827 1.54019 246.334 1.64464C247.094 1.80143 248.466 1.89507 249.279 1.72506C249.88 1.59932 249.183 0.803543 249.942 1.04607C250.28 1.15434 249.661 1.62883 250.294 1.79299C250.924 1.95706 252.528 1.92225 253.144 1.90081C253.757 1.879 253.416 1.2748 253.465 1.23346C253.763 0.99661 254.934 0.694675 255.037 0.694638C260.261 0.580859 265.096 1.56477 270.181 1.19599C270.581 1.16802 270.31 0.534749 270.371 0.523935C271.739 0.24998 270.671 1.94415 271.63 2.50262C271.483 1.21585 272.049 1.44544 273.008 1.29862C273.47 1.22686 273.215 0.730193 273.256 0.678941C273.934 -0.0813162 274.426 0.893205 274.55 1.09219C275.013 1.82444 275.505 0.953485 275.819 1.44278C276.133 1.9282 275.423 2.65488 276.347 2.63991C276.604 2.17865 275.91 0.980758 276.611 0.782328C279.241 0.0325572 284.184 0.952857 286.327 1.04125C288.458 1.13018 289.117 1.04375 290.371 1.20432C292.616 1.49476 291.79 0.613236 293.174 0.205323C294.558 -0.202018 293.892 1.97185 294.093 2.43826C294.29 2.90427 294.499 2.42308 294.745 2.67872C294.991 2.93421 294.461 3.25366 295.039 3.34764C295.618 3.44125 297.185 2.60624 297.386 2.11864C297.811 1.08522 297.105 0.00322199 298.616 0.381246C298.703 0.403657 298.423 0.973843 298.756 1.03074C301.42 1.46357 304.145 1.48615 306.82 1.86913C307.184 1.92263 306.86 2.55344 307.072 2.59164C309.275 2.9913 308.473 1.92993 309.689 0.750904C309.415 2.31974 310.098 3.27858 311.773 3.28543C312.778 3.29035 312.605 2.60672 313.251 2.12487C313.445 1.97969 314.15 2.44869 314.285 2.12749C314.714 1.07791 314.041 -0.0979321 315.778 0.372496C315.854 0.394813 315.612 0.968598 315.874 1.00368C317.577 1.23313 317.735 0.137457 319.599 0.0100501C321.046 -0.0897639 323.575 0.58439 325.222 0.698145C325.187 2.44248 326.715 2.04612 327.343 0.84841C328.419 0.901869 329.567 0.839386 330.58 1.00993C330.928 1.06807 330.697 1.56971 330.741 1.62426C330.956 1.89792 331.148 1.96484 331.318 1.92797C331.318 1.92786 331.319 1.92775 331.319 1.92763C331.692 1.84805 331.96 1.30292 332.118 1.27285C334.606 0.846208 336.638 1.73515 338.979 0.911809C339.061 0.88181 339.204 -0.29834 339.842 0.573649C339.883 0.633131 339.088 1.1612 340.214 1.21585C341.339 1.27324 343.411 1.91794 344.974 1.40483C345.356 1.27981 346.269 0.371532 347.05 1.10831C347.152 1.20787 347.037 1.5317 347.183 1.71496C347.654 2.29667 347.925 1.15975 348.468 2.1348C349.007 3.11055 350.151 3.82109 351.724 3.17627C351.773 3.15708 352.152 2.28192 352.635 2.30343C353.397 2.33705 354.546 2.53211 355.347 2.53668C355.735 2.53885 355.494 2.00611 355.561 1.99737C358.202 1.75268 360.068 2.26 362.876 2.50033C363.409 2.54247 364.859 1.91468 365.88 2.45809C366.973 3.04397 365.781 5.36917 368.323 4.81145C369.341 4.57398 370.713 1.76615 372.48 3.26615C376.04 2.99525 379.314 3.76708 382.867 3.40802C383.016 3.39151 383.565 2.71718 383.939 2.7427C384.501 2.78082 384.772 3.11158 385.183 3.14778C386.847 3.30505 388.399 3.10185 389.992 3.21628C390.612 3.25937 390.385 3.56438 391.108 3.61374C391.829 3.66236 392.338 3.27647 393.317 3.52226C394.054 3.70964 394.763 4.57046 395.737 4.71205C395.826 3.90544 396.485 3.95524 397.716 3.81114C397.948 3.78292 397.717 3.48982 397.828 3.46213C398.273 3.34344 398.692 3.59948 399.114 3.46765C399.218 3.43615 399.237 3.1635 399.327 3.12266C400.076 2.76483 401.219 3.4499 401.409 3.56815C401.826 3.81433 402.124 3.82845 402.402 3.82156C402.402 3.82156 402.402 3.82156 402.402 3.82156C402.645 3.81632 402.872 3.79615 403.137 3.88561C403.715 4.08152 402.82 4.22529 403.508 4.36531C404.941 4.65549 406.79 4.73093 408.253 4.84292C408.833 4.88566 408.462 4.49612 408.545 4.4938C409.764 4.48427 410.952 4.95699 411.676 4.28431C412.376 6.21371 412.414 4.15486 414.113 4.66372C414.248 4.70485 414.345 5.6005 413.82 5.68941C413.289 5.77784 412.521 5.44141 411.782 5.59008C411.611 5.62493 410.57 6.3812 410.43 6.42183C409.354 6.73902 409.304 5.41025 409.25 5.3335C408.68 4.50763 407.413 5.31819 407.097 5.35926C405.626 5.54538 404.419 5.28209 403.195 5.40791C402.749 5.45415 402.506 5.74986 402.268 5.98582C402.268 5.98583 402.268 5.98583 402.268 5.98584C402.092 6.16683 401.918 6.3128 401.649 6.28507C399.588 6.07714 398.946 4.82292 396.94 5.78214C396.498 5.98762 396.888 6.96418 395.42 6.14712C395.343 6.09724 394.245 5.35438 393.601 5.77257C393.518 5.82533 393.507 6.1086 393.399 6.12877C392.665 6.2583 392.231 6.01789 391.434 6.10385C390.669 6.19159 389.714 6.33486 388.844 6.21925C388.301 6.14977 387.656 5.58803 387.403 5.44642C386.685 5.03833 385.905 5.66794 385.471 5.18147C385.035 4.68781 385.951 3.98245 384.77 3.63136C384.698 4.41803 384.57 5.22546 384.472 6.01921C381.888 5.96839 379.349 5.69401 376.745 5.73298C376.428 5.73942 376.739 6.19801 376.398 6.21829C374.937 6.3048 373.686 5.98004 372.157 6.13164C371.004 6.25161 369.688 6.79466 368.473 6.96005C367.724 5.90591 365.939 6.29418 364.6 6.22026C364.146 6.19359 364.181 5.8943 363.857 5.80111C362.625 5.45423 363.186 6.445 362.842 6.60953C361.344 7.32358 361.311 5.03232 359.56 5.09549C359.455 5.09508 358.346 6.36749 358.19 6.4529C357.211 6.9889 358.037 6.01537 357.428 5.93174C356.297 5.77883 355.552 5.47588 354.235 5.87784C353.853 5.99481 352.908 6.83866 352.195 6.21247C352.1 6.1301 352.158 5.68881 352.081 5.66407C350.674 5.24905 350.613 6.64436 349.785 7.14108C348.988 7.64023 347.748 6.68882 347.492 6.40523C346.827 5.67787 348.009 6.08342 348.045 6.0105C348.477 5.14899 347.565 5.30592 346.856 5.23877C346.761 3.83103 345.792 3.91425 346.13 5.17451C346.165 5.31176 346.713 5.17544 346.856 5.23877C346.207 6.62467 345.18 6.83702 343.992 5.53416C343.443 4.92223 343.956 4.19887 342.28 4.46747C341.523 4.5893 341.808 5.58654 341.134 5.86526C339.57 6.50539 337.608 5.57925 335.996 5.73173C335.411 5.78834 335.978 6.3451 335.578 6.40349C334.531 6.56101 333.634 6.14277 332.572 6.35972C332.476 6.38015 332.707 6.96876 332.378 6.97679C332.014 6.9873 331.655 6.98801 331.299 6.98143C331.298 6.98142 331.298 6.98141 331.297 6.9814C329.293 6.94322 327.338 6.66612 325.165 6.65912C323.909 6.65516 321.679 6.98617 320.387 6.92327C318.109 6.81774 315.397 5.95701 313.459 6.17318C312.219 6.31198 312.49 6.90943 311.957 7.31912C310.932 8.11398 309.068 6.70501 308.838 6.48576C308.827 6.47847 309.906 6.33322 309.327 6.02759C308.995 5.38747 308.85 6.48289 308.838 6.48576C308.68 6.34447 306.539 6.2165 306.108 6.3332C305.875 6.39693 306.006 6.96558 305.885 6.9881C303.01 7.51081 300.116 7.6736 297.222 7.42379C297.171 7.41254 297.246 6.77193 297.126 6.75343C295.435 6.47826 294.348 7.26854 292.969 7.7443C291.583 8.21977 290.473 8.07265 289.638 6.97444C288.598 7.12065 287.093 6.64296 286.222 6.35219C285.351 6.06138 285.234 7.31695 285.158 7.34236C282.784 8.15497 281.414 7.44787 278.935 7.35585C277.77 7.30998 275.444 7.51275 274.166 7.66247C273.164 7.78282 272.563 7.49233 271.639 7.69026C271.514 7.71673 271.644 8.27824 271.606 8.30027C270.579 8.9837 271.065 7.6029 270.85 7.35912C270.072 6.47255 269.585 5.99993 268.266 6.43283C267.963 6.53176 267.092 8.52507 266.538 8.64727C265.817 8.80219 266.084 8.08737 265.328 8.26765C265.264 8.28244 265.281 8.72166 264.813 8.70726C262.628 8.64633 260.29 8.41556 258.023 8.48514C257.714 8.49299 258.116 9.1879 257.67 9.21087C255.596 9.31793 253.298 9.32009 251.266 9.01659C250.766 8.93966 251.075 8.44446 250.965 8.29988C250.292 7.4248 249.358 8.71926 249.203 8.74586C245.479 9.41008 242.626 8.28247 238.841 8.88867C238.635 8.92373 237.061 10.3301 236.338 9.15294C236.289 9.07475 235.571 7.86908 234.962 8.70873C234.924 8.7613 235.367 9.38089 234.605 9.328C233.842 9.27509 232.621 9.71152 231.564 9.03818C231.229 8.82624 230.429 7.6219 229.45 8.60526C229.387 8.67335 227.886 10.8894 227.322 9.38463C227.23 9.1369 227.304 7.53348 226.132 8.37241C225.908 8.53511 226.322 8.88636 225.73 9.11867C224.822 9.47686 223.609 9.06575 222.499 9.79868C222.305 9.92825 221.488 11.0321 220.81 10.2155C220.704 10.0876 220.895 9.54798 220.542 9.49361C218.863 9.2324 217.114 9.62055 215.408 9.277C214.804 9.15627 215.1 8.28155 214.469 8.05862C213.837 7.8358 212.569 7.63171 211.917 8.04059C211.264 8.44979 212.002 9.82585 211.019 9.95422C206.745 10.513 202.497 9.77561 198.216 9.7373C197.582 9.73164 198.115 10.2217 197.182 10.2496C193.739 10.3532 187.796 10.9512 184.796 9.94545C182.383 9.13845 185.391 8.42135 183.551 8.11022C182.662 7.96141 181.736 9.62199 181.524 9.67857C179.456 10.2493 177.992 9.55421 176.121 9.82034C175.735 9.87565 176.127 10.5342 175.799 10.5741C174.676 10.7162 173.498 10.4459 172.417 10.5264C171.934 10.564 172.033 11.0728 171.588 11.0443C170.523 10.9818 169.581 10.7901 168.54 10.3355C168.446 10.294 169.066 9.64165 168.283 9.63686C167.011 9.6313 165.414 9.19518 163.967 9.72197C163.537 9.88027 163.545 11.0554 162.6 10.268C162.577 10.2494 162.56 10.2147 162.546 10.1697C162.546 10.1691 162.546 10.1685 162.545 10.1679C162.434 9.81361 162.498 8.82848 161.554 9.93322C161.374 10.1399 159.581 11.8368 158.666 10.7991C158.425 10.5259 157.798 9.38338 157.284 9.57935C157.214 9.61037 157.511 10.2363 157.08 10.3101C155.551 10.5594 153.952 10.5372 152.4 10.7824C151.985 10.8492 152.619 11.4895 152.002 11.5685C150.28 11.7874 148.143 11.687 146.469 11.533C145.846 11.4752 146.262 10.9122 146.215 10.8539C145.465 9.90408 145.069 11.2304 144.83 11.3151C143.344 11.8228 142.214 11.2417 140.832 11.4515C140.452 11.5079 140.738 12.1285 140.663 12.1872C139.891 12.7631 140.448 11.6118 139.948 11.5039C138.541 11.1976 137.02 11.2996 135.602 11.4299C135.085 11.4787 135.686 12.193 135.222 12.2286C132.487 12.4533 129.624 12.4908 126.956 12.1812C126.454 12.1215 126.753 11.5373 126.644 11.4104C125.889 10.5215 124.86 11.8093 124.62 11.9384C123.525 12.5249 123.082 12.0334 122.112 12.1655C117.331 12.8236 111.414 12.727 106.897 12.6988C101.005 12.6687 96.4291 12.2892 90.8167 12.6739C90.4638 12.6976 90.8466 13.4831 90.5429 13.5141C86.5612 13.8811 82.6554 13.737 78.6917 14.1469C78.3686 14.1791 78.8654 14.9286 78.3428 15.0068C77.2592 15.1732 75.8968 15.1935 74.8154 14.995C74.2841 14.8996 74.9718 14.2037 74.4308 14.1212C73.1621 13.9277 71.8425 13.9299 70.5742 14.1106C70.0276 14.1896 70.8839 14.9479 70.1719 14.9889C65.3698 15.2829 60.6541 15.637 55.7535 14.8076C55.4169 14.7507 55.0598 13.127 54.3702 13.4707C54.335 13.9273 54.3586 14.4617 54.3544 14.9484C47.6968 15.4884 41.1265 15.2678 34.4486 15.4109C34.4485 15.4109 34.4484 15.4109 34.4483 15.4109C34.0888 15.4188 33.7334 15.4276 33.382 15.4374C33.0857 15.4458 33.6319 16.2983 33.06 16.319C29.7433 16.4403 26.54 16.8122 23.1001 16.0824C22.7567 16.0113 22.8894 14.4673 21.8902 14.7405C21.7081 14.7904 20.2371 15.0552 19.855 15.4047C19.8051 15.4572 20.1044 16.1632 19.6275 16.2034C16.8438 16.4255 13.8887 16.3816 11.0824 16.0573C10.6332 16.0035 11.0759 15.2206 10.7578 15.1756C8.46074 14.8633 6.00796 15.5452 3.80568 14.9419C2.33715 14.5351 2.81391 13.1934 1.98942 11.9263C1.86854 11.7477 0.970403 11.756 0.890154 11.0022C0.690848 9.10663 1.04257 7.00723 0.778162 4.98888C0.734036 4.65313 0.016094 4.88699 0.000259534 4.51143C0.000256181 4.51135 0.000252828 4.51127 0.00024946 4.51119C-0.00429712 4.40047 0.05201 4.23685 0.204775 3.99015C0.252747 3.91746 1.11237 3.53108 1.31396 3.16436C1.45341 2.91082 1.15086 2.1534 1.44446 1.82405C1.73929 1.49495 2.0994 2.12544 2.59521 1.73229C3.08693 1.33471 2.82683 0.469479 3.83799 0.324011ZM282.312 5.05128C281.507 4.4529 281.4 6.66516 282.265 6.12974C282.307 6.10123 282.354 5.08061 282.312 5.05128ZM379.394 4.58173C378.367 3.9082 377.629 4.87124 378.349 5.38714C379.057 5.89441 379.713 4.78231 379.394 4.58173ZM390.278 4.40631C389.071 3.89141 388.803 5.80252 390.124 5.45168C390.202 5.43196 390.349 4.43594 390.278 4.40631ZM5.5619 11.408C5.54415 11.373 4.90484 11.3644 4.88466 11.4007C4.57471 12.2691 5.87348 12.2848 5.5619 11.408ZM401.076 4.48113C400.711 4.21345 399.593 4.4314 400.048 4.7635C400.414 5.02997 401.531 4.81348 401.076 4.48113ZM240.408 3.0311C240.395 2.99761 239.93 2.97227 239.941 3.16231C239.979 3.77434 240.624 3.59442 240.408 3.0311ZM419.367 5.80249C416.682 5.48352 415.16 3.85801 418.098 4.28539C418.63 4.36387 416.903 4.65656 417.573 4.85185C418.791 5.20746 419.703 4.35171 420.921 4.97274C421.142 5.0861 419.521 5.82375 419.362 5.80411C419.364 5.80357 419.366 5.80303 419.367 5.80249ZM281.836 2.39871C281.82 2.36955 281.175 2.34527 281.159 2.37435C280.814 3.07853 282.114 3.12734 281.836 2.39871ZM213.226 1.95148C213.189 1.88751 211.692 1.84714 211.644 1.90723C210.881 3.10601 213.906 3.18918 213.226 1.95148ZM325.248 0.744759C325.954 0.0603673 326.78 -0.0159125 327.339 0.84752C326.641 0.798949 325.952 0.789546 325.248 0.744759Z" fill="#B69CBB"/>
</svg>
