<svg width="606" height="100" viewBox="0 0 606 100" fill="none" xmlns="http://www.w3.org/2000/svg">
<path d="M6.78871 75.1799C11.6226 73.3948 17.6637 72.2224 22.3019 71.4993C23.763 71.2729 23.1023 71.821 24.1115 71.6854C26.0574 71.4278 27.844 70.8613 29.7549 70.6633C30.4026 70.597 29.7339 71.371 30.4126 71.2872C30.5119 71.2748 30.6115 71.262 30.7112 71.249C30.7126 71.2488 30.7141 71.2486 30.7156 71.2484C34.252 70.7935 37.5661 70.0066 41.1625 69.4825C59.3736 66.8323 77.329 64.6916 95.8307 63.4047C101.939 62.9738 109.402 63.0673 115.698 62.4774C116.439 62.4071 115.967 61.8398 116.105 61.7838C118.256 60.9257 117.585 62.1561 119.027 62.2464C124.75 62.6041 131.076 62.4631 136.561 62.1323C138.887 61.9914 136.531 60.8351 138.895 61.4683C139.059 61.5112 138.473 62.1594 139.116 62.2183C140.594 62.3493 143.303 62.2094 144.444 62.255C146.63 62.3454 146.958 62.3387 149.016 62.3474C149.594 62.3515 150.195 62.3692 150.814 62.3942C150.823 62.3945 150.831 62.3948 150.84 62.3952C153.175 62.4912 155.796 62.6939 158.15 62.6137C158.791 62.5903 157.953 61.9164 158.978 61.8196C160.005 61.7221 162.719 61.8294 163.622 62.0063C164.53 62.1824 164.13 62.6943 164.288 62.8172C165.594 63.8527 168.758 62.5414 169.159 62.519C176.52 62.1401 182.784 63.1902 189.66 63.5152C194.869 63.7602 200.476 63.7997 205.428 64.1284C211.335 64.5233 216.322 65.2081 222.058 65.5347C222.664 65.5701 222.009 64.7343 222.749 64.776C230.612 65.2197 238.403 65.8778 246.173 67.0102C246.951 67.1245 245.889 67.7413 246.663 67.8971C251.415 68.8342 258.867 70.8111 261.962 68.0088C265.19 68.3854 269.123 68.8251 271.971 69.6719C273.812 70.2177 271.933 70.8304 274.256 70.6926C274.78 70.6623 274.161 69.9419 274.942 69.9467C278.232 69.9679 281.777 70.4739 285.053 70.3916C285.716 70.3731 285.585 69.7605 285.78 69.6678C287.409 68.9208 289.911 70.5736 290.47 70.7242C294.722 71.853 297.91 71.7977 301.953 72.1334C302.886 72.2112 301.847 71.3183 302.746 71.3639C307.431 71.6125 312.248 72.0476 316.8 72.7405C317.811 72.8964 316.825 73.5188 317.305 73.6286C319.416 74.1038 319.989 72.8329 322.029 73.2598C322.458 73.348 322.172 73.923 322.246 73.9935C323.412 75.1015 324.568 73.7272 324.897 73.7174C326.618 73.6506 328.037 73.9065 329.391 74.2286C329.421 74.2358 329.452 74.2431 329.482 74.2504C331.367 74.694 333.086 75.245 335.331 75.2578C335.8 75.2586 334.793 74.4424 336.107 74.4899C344.819 74.7985 353.996 75.4267 362.62 76.3229C363.953 76.4608 362.979 77.0135 363.06 77.0879C364.38 78.256 365.344 76.7771 365.78 76.732C369.215 76.418 372.442 77.769 374.815 75.9882C389.409 76.87 403.883 75.6218 418.402 76.533C418.586 76.5428 418.298 77.3522 418.67 77.3682C423.117 77.5619 422.195 76.3763 425.016 74.6739C425.71 74.2467 428.088 75.9062 428.288 76.0249C429.047 76.4635 428.383 77.701 428.633 77.7783C430.706 78.3755 430.072 74.4949 432.754 74.2739C432.839 74.2735 432.547 75.022 432.777 75.075C433.494 75.2417 434.174 74.8962 434.878 75.0849C435.001 75.1184 435.119 75.1601 435.234 75.2081C435.289 75.2314 435.343 75.256 435.396 75.282C436.691 75.8988 437.494 77.2202 439.537 76.0394C439.824 75.8664 439.156 73.6995 441.557 73.568C442.521 73.5209 446.732 73.0358 447.929 73.0389C449.125 73.0469 448.397 73.8515 448.484 73.8728C451.779 74.4418 450.626 74.9707 452.394 76.1681C454.176 77.3534 453.314 74.1024 453.914 73.6513C454.516 73.2023 456.951 73.6663 457.564 73.8538C458.173 74.0438 457.522 74.5932 458.052 74.6749C461.586 75.1898 459.297 72.8295 460.339 72.1461C462.764 70.5271 465.166 72.6476 467.607 72.4841C468.267 72.4391 467.645 71.9747 468.212 71.8254C470.455 71.2386 471.962 71.7515 474.417 70.5685C474.823 70.3753 476.607 68.5216 478.169 69.3081C478.391 69.4222 477.971 70.135 478.964 70.0703C480.446 69.9768 483.073 69.5433 484.572 68.9883C485.677 68.5793 484.147 67.8968 485.647 67.8712C486.313 67.8593 485.27 68.7096 486.514 68.6372C487.721 68.5708 490.629 67.8363 491.839 67.5012C491.872 67.4924 491.903 67.4839 491.932 67.4757C491.965 67.4668 491.995 67.4577 492.025 67.4484C493.035 67.1259 492.259 66.5796 492.338 66.5077C492.824 66.0799 494.922 65.143 495.116 65.0897C504.821 62.3826 514.107 60.634 523.082 56.4841C523.786 56.1599 523.015 55.6538 523.119 55.597C525.431 54.2876 524.296 56.9586 526.274 56.8475C525.417 55.5386 526.535 55.3697 528.174 54.4588C528.963 54.018 528.272 53.677 528.322 53.5883C528.351 53.5426 528.38 53.4992 528.409 53.458C528.458 53.3888 528.509 53.3259 528.561 53.2688C529.395 52.3471 530.516 52.9103 530.804 53.0142C531.976 53.4324 532.408 52.0964 533.2 52.3615C533.992 52.6186 533.106 53.9895 534.725 53.1961C534.942 52.4912 533.13 51.7959 534.252 51.0031C538.498 48.0829 547.331 44.4581 550.819 42.2506C552.886 41 554.073 40.1662 555.125 39.453C555.19 39.4087 555.254 39.365 555.318 39.3216C555.979 38.8719 556.587 38.4666 557.34 37.9859C560.936 35.6205 559.078 35.7957 560.775 33.7575C562.419 31.6781 563.124 34.3318 563.767 34.4662C564.412 34.5893 564.347 33.9051 564.889 33.787C565.439 33.6598 564.933 34.6491 565.829 33.9323C566.745 33.223 568.173 30.3019 567.989 29.6394C567.635 28.2423 565.868 28.4839 567.981 26.5677C568.103 26.4552 568.282 27.2739 568.721 26.8208C571.85 23.5189 574.389 19.3889 575.54 14.9847C575.557 14.9161 575.574 14.8478 575.591 14.7799C575.681 14.4157 575.729 14.0403 575.734 13.659C575.721 13.0032 576.511 13.5026 576.492 13.0776C576.196 10.7677 575.34 10.3085 574.809 10.1689C574.211 10.0467 573.595 10.2524 572.387 9.89305C573.553 9.32371 573.927 8.3138 573.142 6.92343C573.12 6.88474 573.098 6.84602 573.075 6.8073C572.625 6.13526 571.843 5.60474 570.908 5.26024C568.843 4.58781 569.032 5.5114 567.681 5.78866C567.296 5.87766 565.97 5.16918 565.692 5.50919C564.745 6.61145 565.917 7.99158 562.719 7.24795C562.579 7.21557 563.063 6.59778 562.574 6.53315C559.325 6.15146 558.947 7.38199 555.447 7.58308C552.725 7.74364 547.748 7.29449 544.589 7.44589C544.492 5.54654 541.535 6.24613 540.449 7.65688C538.4 7.79876 536.198 8.10377 534.194 8.15221C533.511 8.16888 533.893 7.58267 533.801 7.53443C533.13 7.17586 532.604 7.29109 532.19 7.52139C532.17 7.53268 532.15 7.54426 532.131 7.5561C531.708 7.81236 531.438 8.18179 531.221 8.23835C526.764 9.37219 522.695 9.93478 519.873 13.4338C519.771 13.5688 520.427 14.6442 518.985 14.7376C518.882 14.7531 519.514 13.3212 518.02 14.7317C516.882 15.8198 514.86 17.7226 513.624 19.958C513.624 19.9595 513.623 19.9609 513.622 19.9624C513.258 20.6091 512.958 21.2836 512.765 21.9351C512.544 22.6389 512.697 24.6581 511.412 25.656C511.237 25.7904 510.983 25.4538 510.687 25.634C509.74 26.2349 510.76 27.156 509.367 27.7792C507.981 28.4006 506.402 30.3745 506.411 33.5697C506.409 33.6732 507.243 34.6119 507.036 35.5353C506.696 37.0146 506.141 39.1197 505.993 40.7105C505.922 41.4696 506.617 41.0447 506.616 41.1772C506.573 43.4163 506.521 45.3498 506.543 47.2851C506.543 47.2894 506.543 47.2937 506.543 47.2979C506.583 49.7358 506.739 52.2156 507.538 55.1639C507.788 56.1657 509.649 58.4495 509.921 60.4589C510.272 62.6904 506.206 62.3901 509.661 66.4208C510.681 67.5573 513.438 67.6969 515.111 69.0726C515.124 69.0835 515.137 69.0945 515.15 69.1056C515.817 69.67 516.311 70.4429 516.527 71.6132C521.435 76.6009 526.844 80.6273 533.547 82.6904C533.821 82.7753 534.903 82.2662 535.619 82.3617C535.627 82.3627 535.634 82.3637 535.642 82.3647C535.72 82.3761 535.793 82.3954 535.859 82.4244C536.853 82.8576 537.215 83.5569 537.93 83.8711C540.921 85.1914 543.864 85.7883 546.811 86.877C547.928 87.2843 547.381 87.6135 548.723 88.0842C550.074 88.5494 551.156 88.2644 552.903 89.1304C554.219 89.787 555.267 91.3291 557.102 91.9678C557.496 90.9205 558.763 91.3218 561.106 91.7133C561.555 91.7887 561.191 91.3028 561.409 91.3211C562.295 91.3928 562.986 91.9045 563.836 91.9461C564.042 91.9572 564.144 91.6309 564.317 91.6226C565.788 91.5506 567.797 92.9099 568.152 93.1274C569.492 93.9869 570.281 93.7686 571.365 94.2419C572.444 94.7053 570.709 94.4929 571.995 94.9311C574.334 95.7207 577.332 96.4148 579.911 96.9708C579.911 96.971 579.912 96.9711 579.913 96.9713C580.3 97.0548 580.672 97.1339 581.026 97.209C582.153 97.4438 581.461 96.9063 581.624 96.9311C583.946 97.3069 586.249 98.1147 587.652 97.5418C588.986 99.7434 589.082 97.5926 592.368 98.3291C592.63 98.3849 592.887 99.3587 591.847 99.3989C590.803 99.4372 589.289 98.9606 587.845 98.9655C587.505 98.972 585.445 99.5381 585.169 99.5406C583.038 99.5944 583.011 98.1384 582.922 98.0454C582.192 97.3318 580.855 97.3164 579.833 97.344C579.832 97.3441 579.831 97.3441 579.831 97.3441C579.354 97.3611 578.951 97.3904 578.748 97.3677C575.907 97.054 573.593 96.3017 571.233 95.968C569.682 95.7446 569.286 96.6734 568.096 96.3718C564.136 95.3872 563.207 93.5264 559.105 93.9091C558.224 93.9928 558.644 95.4404 556.068 93.7572C555.902 93.6599 554.075 92.1698 552.663 92.4433C552.485 92.4794 552.366 92.8725 552.153 92.8531C550.72 92.7172 549.911 92.1576 548.381 91.9092C546.848 91.6611 544.976 91.4094 543.338 90.7605C542.353 90.3757 541.345 89.139 540.936 88.773C539.795 87.7365 537.978 88.2026 537.414 87.177C536.856 86.1366 538.904 85.6474 536.918 84.343C536.371 85.5004 535.704 86.65 535.098 87.7975C534.622 87.6153 534.124 87.4158 533.656 87.2205C533.649 87.2175 533.642 87.2146 533.635 87.2117C529.303 85.3855 525.104 83.1732 520.84 80.3617C520.256 79.9706 520.446 80.9704 519.796 80.5494C517.053 78.7494 515.214 76.3298 512.953 73.9992C512.38 73.4116 511.765 72.8409 511.144 72.2797C511.13 72.2677 511.117 72.2556 511.104 72.2435C509.827 71.0937 508.445 69.8784 507.344 68.4708C507.689 66.2954 505.218 63.2343 504.192 60.4527C503.83 59.4929 504.234 59.3966 504.093 58.6801C503.609 55.9663 502.798 57.5983 502.348 56.9424C500.535 53.9899 503.362 52.9641 502.795 49.3758C502.779 49.2608 502.089 48.3999 501.557 47.6163C501.553 47.6116 501.55 47.6068 501.547 47.6021C501.206 47.1119 500.926 46.6616 500.883 46.5321C500.197 44.3817 501.424 46.1595 501.541 44.8306C501.8 42.4174 502.3 40.8405 502.237 38.0547C502.212 37.2521 501.587 35.1459 502.687 33.7792C502.83 33.601 503.311 33.8246 503.378 33.6722C504.564 30.9321 503.049 30.4566 503.033 28.6338C503.025 26.8015 505.041 24.6595 505.545 24.2966C506.845 23.3098 505.468 25.4229 505.527 25.5269C506.121 26.6934 506.623 24.8584 507.28 23.566C508.804 23.9863 509.538 22.1699 507.969 22.2273C507.792 22.2386 507.459 23.3252 507.28 23.566C506.358 21.8041 507.197 19.5171 509.739 18.0576C509.907 17.9616 510.054 17.9089 510.186 17.8788C510.189 17.8782 510.191 17.8776 510.194 17.877C511 17.7102 511.185 18.279 512.684 15.6869C513.529 14.3247 512.287 14.1649 512.999 12.8211C514.657 9.67647 519.067 7.40478 522.262 5.8812C523.437 5.29954 522.025 5.262 522.839 4.84923C525.039 3.77073 527.186 3.66263 529.401 3.02222C529.605 2.96396 528.986 2.43258 529.704 2.29904C530.296 2.19027 530.879 2.10237 531.46 2.03088C531.484 2.02795 531.508 2.02504 531.532 2.02216C535.737 1.51551 539.599 1.39199 544.132 0.980303C546.596 0.75027 551.024 0.0518809 553.631 0.00808395C558.19 -0.0943813 563.722 0.802453 567.996 1.21713C570.842 1.55649 570.426 0.837822 571.971 0.798719C573.103 0.867717 574.695 1.27787 576.596 3.25961C576.623 3.29629 576.651 3.33369 576.679 3.37177C577.732 4.75242 578.537 6.80288 578.627 7.23166C578.633 7.18338 576.77 5.22465 577.426 6.53992C577.379 7.62372 578.597 7.20041 578.627 7.23166C578.676 7.4529 579.513 8.62016 580.155 10.4137C580.852 12.1834 580.873 14.6256 580.707 15.6106C580.701 15.6788 580.696 15.7386 580.694 15.7891C580.692 15.8269 580.693 15.8614 580.697 15.8929C580.75 16.3454 581.358 16.1902 581.326 16.48C580.35 23.7599 576.612 29.3514 572.267 33.8871C572.183 33.9616 571.748 33.3577 571.563 33.5338C568.923 35.981 567.897 38.1469 566.01 40.4932C564.114 42.8215 562.116 44.1038 560.005 44.1026C559.752 44.3162 559.468 44.5292 559.162 44.7392C559.095 44.7855 559.026 44.8317 558.957 44.8777C557.315 45.9657 555.184 46.8936 553.843 47.4357C552.196 48.1 552.737 49.4282 552.62 49.5378C548.991 52.8745 546.157 53.5865 541.733 55.8299C539.627 56.9018 535.55 59.2035 533.306 60.4336C532.866 60.6787 532.46 60.872 532.069 61.0422C532 61.0723 531.931 61.1016 531.863 61.1303C530.774 61.588 529.823 61.8789 528.687 62.5617C528.47 62.6918 528.968 63.2062 528.908 63.2613C527.324 64.8501 527.592 62.9251 527.085 62.8269C525.246 62.4586 524.164 62.299 521.911 63.7718C521.396 64.1068 520.615 67.0209 519.614 67.5702C518.319 68.2728 518.53 67.2584 517.177 68.0034C517.061 68.0658 517.274 68.5621 516.381 68.8745C512.249 70.3272 507.64 71.5665 503.326 72.9408C502.736 73.1266 503.745 73.7347 502.892 74.0179C500.159 74.9223 497.214 75.7604 494.319 76.3715C494.254 76.3852 494.189 76.3988 494.124 76.4122C492.856 76.676 491.593 76.9005 490.374 77.0703C489.371 77.2072 489.84 76.4565 489.585 76.3295C488.037 75.563 486.558 77.5627 486.261 77.6616C479.139 80.0756 473.254 79.71 465.906 81.6022C465.502 81.7111 462.629 83.9159 461.007 82.6397C460.899 82.5555 459.299 81.2442 458.224 82.4451C458.156 82.5202 459.131 83.1805 457.606 83.3081C456.097 83.4333 453.73 84.27 451.552 83.6605C450.868 83.4686 449.153 82.1382 447.331 83.5624C447.223 83.6617 444.489 86.7209 443.21 84.9412C442.998 84.6479 442.998 82.6349 440.76 83.8868C440.336 84.128 441.184 84.4968 440.042 84.8866C438.966 85.2528 437.652 85.2753 436.287 85.4818C436.235 85.4898 436.183 85.498 436.13 85.5066C435.324 85.6384 434.496 85.8443 433.714 86.2364C433.349 86.4256 431.795 87.9162 430.402 86.9817C430.183 86.8356 430.526 86.139 429.821 86.1155C426.483 85.9992 423.036 86.6582 419.642 86.3646C418.429 86.262 418.993 85.1566 417.739 84.9275C416.477 84.6993 413.97 84.5278 412.7 85.0622C411.421 85.5967 412.917 87.2562 410.958 87.4542C402.487 88.2981 394.064 87.3265 385.627 87.0566C384.383 87.0148 385.417 87.6258 383.568 87.6021C376.772 87.5392 365.009 87.6195 359.192 86.105C354.533 84.9062 360.482 84.4518 356.9 83.8857C355.161 83.6162 353.236 85.3653 352.802 85.3992C348.689 85.7674 345.898 84.7892 342.197 84.8137C341.442 84.8188 342.139 85.6026 341.495 85.5982C339.282 85.5885 336.987 85.1109 334.871 85.0317C333.92 84.9976 334.047 85.5688 333.188 85.4678C331.659 85.2927 330.251 85.0473 328.792 84.6583C328.761 84.65 328.731 84.6416 328.7 84.6332C328.242 84.5067 327.778 84.3652 327.303 84.2061C327.123 84.1456 328.409 83.5367 326.88 83.4044C324.38 83.19 321.356 82.4539 318.442 82.7712C317.588 82.8682 317.465 84.1386 315.705 83.1216C315.335 82.9087 315.94 81.4202 313.707 82.5758C313.345 82.7694 309.642 84.2688 307.977 82.9844C307.542 82.6469 306.467 81.3081 305.432 81.4228C305.291 81.443 305.792 82.1682 304.942 82.1672C301.945 82.1514 298.826 81.8253 295.774 81.7892C294.955 81.7806 296.112 82.583 294.893 82.5473C291.524 82.4489 287.373 81.9235 284.139 81.4331C282.942 81.2506 283.822 80.7395 283.739 80.6691C282.416 79.5248 281.459 80.841 280.992 80.8832C278.061 81.1258 275.882 80.2888 273.203 80.2391C272.461 80.2233 272.931 80.9265 272.779 80.9731C271.207 81.4205 272.44 80.3308 271.484 80.1198C268.807 79.525 265.791 79.3288 263.053 79.1881C262.048 79.1375 263.113 79.9936 262.212 79.9392C256.862 79.6309 251.341 79.1085 246.169 78.2775C245.197 78.1199 245.857 77.5825 245.664 77.4326C244.331 76.3856 242.17 77.5018 241.686 77.5863C239.488 77.9739 238.691 77.3919 236.779 77.3431C227.443 77.111 215.992 75.9537 207.236 75.1978C195.821 74.2152 186.99 73.1919 176.084 72.906C175.391 72.8877 176.061 73.6841 175.464 73.6783C167.763 73.5694 160.199 73.0639 152.508 73.203C151.879 73.2132 152.779 73.9474 151.771 73.9885C151.451 74.0024 151.117 74.0129 150.776 74.0198C150.767 74.02 150.759 74.0201 150.751 74.0203C148.86 74.0563 146.742 73.9881 144.973 73.7931C143.943 73.6816 145.322 73.0615 144.285 72.9625C141.879 72.7315 139.303 72.6953 136.842 72.8378C135.799 72.9001 137.384 73.618 136.03 73.6416C126.734 73.8255 117.648 74.2181 108.226 73.7929C107.591 73.763 106.919 72.3426 105.567 72.7024C105.49 73.1108 105.527 73.5836 105.51 74.0161C92.046 75.0305 78.6585 75.7521 65.2114 77.4496C64.6373 77.5224 65.7273 78.1218 64.6197 78.2659C58.2669 79.0986 52.1889 80.2204 45.5981 80.6252C44.9464 80.667 45.0705 79.3444 43.1947 79.8736C42.8768 79.964 40.049 80.651 39.3811 81.0599C39.2882 81.1198 39.9215 81.6076 38.9994 81.7977C37.0697 82.1932 35.0347 82.5902 33.0574 82.9569C33.056 82.9571 33.0545 82.9574 33.0531 82.9576C29.6 83.5991 26.1735 84.1719 22.8213 84.6921C21.9812 84.8207 22.7284 84.0013 22.1166 84.0907C17.7706 84.7385 13.3049 86.333 9.48292 87.0627C6.94549 87.5838 7.46062 86.2297 5.7268 85.7931C5.48035 85.7241 3.97762 86.4299 3.6077 85.9241C2.66908 84.6309 2.66431 82.6926 1.5789 81.3571C1.38639 81.136 0.145875 81.9797 0.0149747 81.6978C0.0149525 81.6977 0.0149304 81.6977 0.0149083 81.6977C-0.0274935 81.6161 0.0153185 81.4417 0.212187 81.1121C0.249639 81.02 1.78546 79.9011 2.11915 79.4295C2.34063 79.0999 1.50449 78.7831 2.0415 78.246C2.5805 77.7128 3.51132 77.8913 4.4543 77.1979C5.41151 76.5091 4.69242 75.9746 6.78871 75.1799ZM546.398 50.2273C544.677 50.4167 545.704 52.7528 546.916 51.3527C546.973 51.2822 546.486 50.2156 546.398 50.2273ZM526.506 81.6029C525.132 79.71 523.099 80.2272 524.02 81.704C524.99 83.1789 526.952 82.183 526.506 81.6029ZM546.841 88.8091C544.793 87.3734 543.439 90.1153 546.123 90.2871C546.278 90.2969 546.962 88.8908 546.841 88.8091ZM11.9654 83.2607C11.9319 83.2374 10.7382 83.5655 10.7218 83.6039C10.306 84.47 12.67 83.8178 11.9654 83.2607ZM567.335 94.0474C566.69 93.5762 564.518 93.3455 565.317 93.945C565.962 94.4202 568.143 94.6266 567.335 94.0474ZM467.902 73.839C467.868 73.802 466.968 73.9134 467.025 74.1459C467.209 74.8964 468.427 74.4719 467.902 73.839ZM602.767 99.2085C597.411 99.4044 594.321 97.629 599.982 97.8367C601.015 97.8516 597.765 98.3768 599.082 98.5037C601.514 98.734 603.056 97.6236 605.56 97.9872C606.015 98.0549 603.076 99.2058 602.758 99.2113C602.761 99.2104 602.764 99.2095 602.767 99.2085ZM544.113 48.0301C544.07 48.0167 542.955 48.5996 542.945 48.6417C542.737 49.6817 544.99 48.4999 544.113 48.0301ZM415.099 77.476C415.03 77.4016 412.114 77.458 412.027 77.5328C410.566 79.0589 416.465 78.9582 415.099 77.476ZM544.535 7.39953C543.235 8.25359 541.637 8.47894 540.456 7.65723C541.817 7.57711 543.169 7.46433 544.535 7.39953Z" fill="#E1BEE7"/>
</svg>
